<svg width="302" height="302" viewBox="0 0 302 302" fill="none" xmlns="http://www.w3.org/2000/svg">
<circle cx="151" cy="151" r="151" fill="#B8D8EB" fill-opacity="0.5"/>
<g clip-path="url(#clip0_77_542)">
<path d="M236.083 71.8334H85.7632C83.1236 67.2639 77.7424 65.0327 72.6431 66.3987C67.5438 67.7646 64 72.3875 64 77.6667V229.333C64.0097 235.774 69.2257 240.99 75.6667 241H212.75C213.523 241 214.267 240.694 214.811 240.144C215.356 239.595 215.667 238.856 215.667 238.083V223.5H236.083C236.856 223.5 237.6 223.194 238.144 222.644C238.689 222.095 239 221.356 239 220.583V74.75C239 73.9771 238.694 73.2334 238.144 72.6889C237.595 72.1445 236.856 71.8334 236.083 71.8334ZM75.6667 71.8334C78.8847 71.8334 81.4951 74.4487 81.5 77.6667V217.667H75.6667C73.6201 217.667 71.6028 218.206 69.8333 219.237V77.6667C69.8333 74.4487 72.4486 71.8382 75.6667 71.8334ZM233.167 217.667H87.3333V77.6667H233.167V217.667Z" fill="#00A8E1"/>
<path d="M103.375 112.667C97.7359 112.667 93.1665 117.236 93.1665 122.875C93.1665 128.514 97.7359 133.083 103.375 133.083H106.292C108.829 133.083 111.274 132.14 113.151 130.429C114.794 132.126 117.059 133.083 119.421 133.083V127.25C117.812 127.25 116.505 125.942 116.505 124.333V109.75C116.505 103.309 111.279 98.0833 104.838 98.0833C98.3971 98.0833 93.1714 103.309 93.1714 109.75H99.0047C99.0047 106.527 101.615 103.917 104.838 103.917C108.061 103.917 110.671 106.527 110.671 109.75V112.667H103.38H103.375ZM106.292 127.25H103.375C100.959 127.25 98.9998 125.291 98.9998 122.875C98.9998 120.459 100.959 118.5 103.375 118.5H110.667V122.875C110.667 125.291 108.707 127.25 106.292 127.25Z" fill="#00A8E1"/>
<path d="M135.429 121.417H150.071L154.587 134.065L160.08 132.101L145.496 91.268C145.083 90.1062 143.985 89.3333 142.75 89.3333C141.515 89.3333 140.416 90.1062 140.003 91.268L125.42 132.101L130.913 134.065L135.429 121.417ZM142.75 100.922L147.985 115.583H137.51L142.745 100.922H142.75Z" fill="#00A8E1"/>
<path d="M227.333 95.1667H166.083V101H227.333V95.1667Z" fill="#00A8E1"/>
<path d="M180.667 106.833H166.083V112.667H180.667V106.833Z" fill="#00A8E1"/>
<path d="M227.333 106.833H186.5V112.667H227.333V106.833Z" fill="#00A8E1"/>
<path d="M198.167 118.5H166.083V124.333H198.167V118.5Z" fill="#00A8E1"/>
<path d="M105.689 174.772C105.145 175.317 104.833 176.06 104.833 176.833C104.833 177.606 105.14 178.35 105.689 178.894L131.939 205.144C132.483 205.689 133.227 206 134 206C134.773 206 135.517 205.694 136.061 205.144L156.478 184.728C157.027 184.183 157.333 183.44 157.333 182.667C157.333 181.894 157.027 181.15 156.478 180.606L140.383 164.51L142.638 156.232C143.577 152.805 142.857 149.14 140.704 146.315C138.545 143.491 135.196 141.838 131.647 141.838C126.563 141.853 122.1 145.222 120.69 150.102L116.821 163.64L105.689 174.772ZM150.295 182.667L134 198.961L111.872 176.833L128.167 160.539L133.864 166.236L131.186 176.06L136.815 177.597L138.618 170.985L150.295 182.662V182.667ZM126.3 151.701C126.99 149.319 129.168 147.676 131.652 147.667C133.388 147.667 135.021 148.474 136.071 149.854C137.126 151.23 137.476 153.024 137.019 154.696L135.638 159.761L130.233 154.356C129.095 153.218 127.248 153.218 126.111 154.356L125.318 155.143L126.3 151.701Z" fill="#00A8E1"/>
<path d="M101.917 206C106.748 205.995 110.662 202.082 110.667 197.25V196.098C110.667 194.372 110.156 192.681 109.198 191.246L104.342 183.965C103.803 183.153 102.894 182.667 101.917 182.667C100.939 182.667 100.03 183.153 99.4908 183.965L94.6346 191.246C93.6721 192.685 93.1617 194.372 93.1665 196.098V197.25C93.1714 202.082 97.0846 205.995 101.917 206Z" fill="#00A8E1"/>
<path d="M204 176.833H198.167V182.667H204V176.833Z" fill="#00A8E1"/>
<path d="M227.333 176.833H209.833V182.667H227.333V176.833Z" fill="#00A8E1"/>
<path d="M204 188.5H198.167V194.333H204V188.5Z" fill="#00A8E1"/>
<path d="M227.333 188.5H209.833V194.333H227.333V188.5Z" fill="#00A8E1"/>
<path d="M204 200.167H198.167V206H204V200.167Z" fill="#00A8E1"/>
<path d="M227.333 200.167H209.833V206H227.333V200.167Z" fill="#00A8E1"/>
<path d="M201.083 141.833H224.417C226.03 141.833 227.333 143.136 227.333 144.75V168.083C227.333 169.697 226.03 171 224.417 171H201.083C199.469 171 198.167 169.697 198.167 168.083V144.75C198.167 143.136 199.469 141.833 201.083 141.833Z" fill="#00A8E1"/>
<path d="M169 176.833H163.167V182.667H169V176.833Z" fill="#00A8E1"/>
<path d="M192.333 176.833H174.833V182.667H192.333V176.833Z" fill="#00A8E1"/>
<path d="M169 188.5H163.167V194.333H169V188.5Z" fill="#00A8E1"/>
<path d="M192.333 188.5H174.833V194.333H192.333V188.5Z" fill="#00A8E1"/>
<path d="M169 200.167H163.167V206H169V200.167Z" fill="#00A8E1"/>
<path d="M192.333 200.167H174.833V206H192.333V200.167Z" fill="#00A8E1"/>
<path d="M166.083 141.833H189.417C191.03 141.833 192.333 143.136 192.333 144.75V168.083C192.333 169.697 191.03 171 189.417 171H166.083C164.469 171 163.167 169.697 163.167 168.083V144.75C163.167 143.136 164.469 141.833 166.083 141.833Z" fill="#00A8E1"/>
</g>
<defs>
<clipPath id="clip0_77_542">
<rect width="175" height="175" fill="white" transform="translate(64 66)"/>
</clipPath>
</defs>
</svg>
