<svg width="150" height="86" viewBox="0 0 150 86" fill="none" xmlns="http://www.w3.org/2000/svg">
<path d="M18.1007 66.4675C17.426 65.59 16.572 64.9176 15.5388 64.4435C14.5055 63.9717 13.4369 63.7358 12.3353 63.7358C10.9883 63.7358 9.7663 63.9882 8.6788 64.493C7.58893 64.9979 6.65712 65.689 5.88101 66.5666C5.1049 67.4418 4.50571 68.4727 4.07637 69.6522C3.64939 70.8317 3.43708 72.0961 3.43708 73.4431C3.43708 74.7028 3.63995 75.8918 4.04334 77.017C4.44673 78.1399 5.03177 79.1307 5.79609 79.9823C6.56041 80.8362 7.49221 81.5109 8.59387 82.0063C9.69317 82.5017 10.9434 82.747 12.3353 82.747C13.7271 82.747 14.9089 82.4663 15.9422 81.9049C16.9754 81.3434 17.853 80.5555 18.5725 79.5435L21.3019 81.6006C21.1226 81.8483 20.8088 82.2021 20.3583 82.6621C19.91 83.1221 19.3132 83.5845 18.5725 84.0421C17.8318 84.5045 16.9377 84.9079 15.8926 85.2547C14.8476 85.6038 13.6398 85.7784 12.2692 85.7784C10.382 85.7784 8.6788 85.4198 7.16195 84.7003C5.64511 83.9832 4.35237 83.0372 3.2861 81.8695C2.21747 80.7018 1.40361 79.3807 0.842166 77.9087C0.280722 76.4367 0 74.9482 0 73.4431C0 71.6007 0.304312 69.8975 0.910578 68.3359C1.51684 66.7742 2.36609 65.4272 3.45595 64.2902C4.54581 63.1578 5.85506 62.2732 7.3837 61.6457C8.90998 61.0159 10.5967 60.7021 12.4391 60.7021C14.0125 60.7021 15.5577 61.0064 17.0745 61.6127C18.5914 62.2189 19.8322 63.1531 20.7994 64.4105L18.103 66.4675H18.1007Z" fill="#00A8E1"/>
<path d="M25.2131 61.3105H28.4473V71.2207H40.8203V61.3105H44.0568V85.1766H40.8203V74.252H28.4473V85.1766H25.2131V61.3105Z" fill="#00A8E1"/>
<path d="M53.4269 71.8269H57.6754C58.3053 71.8269 58.9281 71.7774 59.5461 71.676C60.1642 71.5745 60.7138 71.3905 61.1974 71.1216C61.681 70.8503 62.0679 70.4634 62.3604 69.9586C62.653 69.4538 62.7992 68.7956 62.7992 67.9865C62.7992 67.1773 62.653 66.5192 62.3604 66.0143C62.0679 65.5095 61.681 65.1203 61.1974 64.8514C60.7138 64.5824 60.1642 64.3961 59.5461 64.2946C58.9281 64.1932 58.3053 64.1436 57.6754 64.1436H53.4269V71.8293V71.8269ZM50.1903 61.3105H58.5837C60.1123 61.3105 61.3697 61.5181 62.3604 61.9333C63.3489 62.3484 64.1297 62.8769 64.7029 63.5162C65.2762 64.1578 65.6748 64.8773 65.8989 65.6746C66.1231 66.472 66.2363 67.241 66.2363 67.9841C66.2363 68.7272 66.1018 69.4844 65.8329 70.1921C65.564 70.8998 65.1747 71.5391 64.6699 72.1124C64.1651 72.6856 63.5447 73.1692 62.8157 73.5608C62.0844 73.9548 61.2706 74.1977 60.3718 74.285L67.1469 85.1742H63.1012L57.0338 74.6554H53.4269V85.1742H50.1903V61.3081V61.3105Z" fill="#00A8E1"/>
<path d="M81.742 82.7492C83.1126 82.7492 84.3487 82.4968 85.4504 81.9896C86.5497 81.4847 87.4957 80.803 88.2836 79.949C89.0691 79.0951 89.6754 78.0901 90.1047 76.9319C90.5294 75.7759 90.744 74.5445 90.744 73.24C90.744 71.9355 90.5294 70.7064 90.1047 69.5482C89.6777 68.3922 89.0715 67.3849 88.2836 66.531C87.4957 65.677 86.5521 64.9976 85.4504 64.4928C84.3487 63.988 83.1126 63.7356 81.742 63.7356C80.3714 63.7356 79.1353 63.988 78.0337 64.4928C76.932 64.9976 75.9884 65.677 75.2029 66.531C74.4173 67.3849 73.8087 68.3922 73.3817 69.5482C72.9547 70.7064 72.7424 71.9355 72.7424 73.24C72.7424 74.5445 72.9547 75.7736 73.3817 76.9319C73.8087 78.0878 74.4149 79.0951 75.2029 79.949C75.9884 80.803 76.932 81.4847 78.0337 81.9896C79.1353 82.4968 80.3714 82.7492 81.742 82.7492ZM81.742 85.7829C79.9209 85.7829 78.2483 85.462 76.7197 84.8227C75.1911 84.1811 73.8818 83.2988 72.7919 82.1759C71.7021 81.053 70.8481 79.7273 70.2301 78.1986C69.612 76.67 69.303 75.0187 69.303 73.2424C69.303 71.466 69.612 69.8171 70.2301 68.2861C70.8481 66.7574 71.7021 65.4317 72.7919 64.3088C73.8818 63.1859 75.1911 62.3036 76.7197 61.662C78.2483 61.0227 79.9232 60.6995 81.742 60.6995C83.5608 60.6995 85.2357 61.0203 86.7644 61.662C88.293 62.3013 89.6023 63.1835 90.6921 64.3088C91.782 65.4317 92.6359 66.7598 93.2564 68.2861C93.8721 69.8147 94.1835 71.466 94.1835 73.2424C94.1835 75.0187 93.8744 76.67 93.2564 78.1986C92.6383 79.7273 91.782 81.053 90.6921 82.1759C89.6023 83.2988 88.293 84.1811 86.7644 84.8227C85.2357 85.462 83.5632 85.7829 81.742 85.7829Z" fill="#00A8E1"/>
<path d="M98.5972 61.3105H103.417L111.001 79.3781H111.135L118.653 61.3105H123.475V85.1766H120.239V65.5567H120.17L112.114 85.1766H109.956L101.9 65.5567H101.831V85.1766H98.5972V61.3105Z" fill="#00A8E1"/>
<path d="M142.654 76.4459L138.205 65.4906H138.137L133.619 76.4459H142.654ZM136.856 61.3105H139.788L150 85.1766H146.226L143.831 79.2767H132.47L130.111 85.1766H126.334L136.851 61.3105H136.856Z" fill="#00A8E1"/>
<path d="M68.876 5.33589C69.4799 4.91127 70.1027 4.51495 70.7467 4.15403C71.3058 3.84028 71.9003 3.59022 72.4476 3.25288C72.9335 2.95329 73.2378 2.48621 73.0538 1.90117C72.8675 1.31142 72.4641 0.747615 72.0395 0.304121C71.6526 -0.0992696 71.0392 -0.0544484 70.5698 0.167299C70.0343 0.422072 69.5059 0.695717 68.9869 0.985875C67.9513 1.56855 66.9581 2.222 66.0145 2.94385C65.1299 3.61853 64.2925 4.35454 63.5022 5.13773L66.0641 7.69962C66.9346 6.83386 67.8758 6.04123 68.8784 5.33353" fill="#00A8E1"/>
<path d="M94.2024 44.8988C94.7166 44.4766 95.0728 43.783 94.5916 43.0848C93.4805 41.4665 90.3454 36.6494 89.5881 35.51C89.0173 34.781 88.1798 35.0217 87.7717 35.2033C87.5971 35.2929 87.3943 35.3991 87.3919 35.3991C84.7616 36.6824 81.7043 37.1401 78.6211 36.5055C71.2091 34.9792 66.4203 27.7064 67.9466 20.292C68.5104 17.5556 69.8574 15.1777 71.7045 13.3424C74.8608 10.2049 79.4821 8.65265 84.1601 9.61513C86.663 10.1294 88.8616 11.3018 90.6261 12.9107C90.8101 13.1041 91.1026 13.5429 90.5152 13.9486C90.0434 14.2742 88.6327 15.1895 88.378 15.357C88.1138 15.5315 87.8354 15.6849 87.5098 15.6707C87.1702 15.6542 86.9319 15.4914 86.6606 15.3098C86.6582 15.3074 86.6535 15.3051 86.6512 15.3027C85.6604 14.6304 84.5281 14.1374 83.2849 13.8802C80.0931 13.2221 76.9391 14.2813 74.783 16.4209C73.5186 17.6759 72.5962 19.3012 72.2117 21.1719C71.9522 22.4316 71.9545 23.7409 72.2211 24.9982C72.4806 26.2202 72.9878 27.3855 73.7002 28.4094C74.0423 28.9 74.4291 29.3577 74.8561 29.7752C75.0708 29.9852 75.2949 30.1833 75.5308 30.3721C75.8469 30.6245 76.4532 30.8745 76.7811 30.4428C76.9533 30.214 77.9417 28.617 78.0361 28.466C78.3239 27.9588 77.7766 27.5247 77.7766 27.5247C76.163 26.2155 75.3161 24.0711 75.762 21.9009C76.0002 20.752 76.5664 19.7518 77.3425 18.9828C78.6636 17.6759 80.5932 17.0295 82.5465 17.4305C83.7095 17.6688 84.7451 18.2774 85.533 19.0818C85.533 19.0818 85.533 19.0842 85.5377 19.0889C85.5755 19.1267 85.6132 19.1668 85.6486 19.2069C85.868 19.4145 86.3822 19.773 87.038 19.4145C87.4226 19.1573 87.8071 18.9002 88.194 18.6407C89.0314 18.0816 89.8689 17.5202 90.7039 16.9611C91.5178 16.4162 92.3317 15.8712 93.1455 15.3263C93.5088 15.0833 93.8839 14.8238 94.259 14.5856C94.6128 14.3615 95.0351 14.0807 95.2238 13.6915C95.5942 12.9295 94.8983 12.1581 94.3887 11.5778C93.8532 10.9692 93.2753 10.4007 92.6596 9.87226C91.414 8.80127 90.0151 7.90957 88.5148 7.23489C87.3542 6.71119 86.1322 6.31723 84.8843 6.0601C78.9679 4.84049 73.1246 6.80555 69.1308 10.7734C66.7977 13.0947 65.0969 16.1 64.3845 19.556C62.4548 28.9307 68.5104 38.1261 77.8827 40.0558C81.1759 40.7328 84.4455 40.4262 87.3872 39.3363C87.3872 39.3363 87.3943 39.3339 87.4037 39.3292C87.4249 39.3198 87.4462 39.3151 87.465 39.3056C87.6467 39.249 88.1043 39.1594 88.4016 39.6217L90.0882 42.2426L90.185 42.3936C90.2628 42.5587 90.3053 42.8253 89.9066 43.0093C85.9741 44.696 81.5062 45.2433 77.0052 44.3162C65.2809 41.9005 57.7085 30.4004 60.1217 18.6761C60.4968 16.8573 61.1031 15.0857 61.9287 13.4202C62.7308 11.8019 63.7381 10.2851 64.92 8.9145C65.2809 8.4946 65.6631 8.08885 66.057 7.69725L63.4928 5.13301C63.4385 5.18727 63.3819 5.23917 63.3276 5.29342C62.4878 6.14503 61.7094 7.0556 60.9969 8.01572C60.2774 8.98763 59.6287 10.0091 59.0555 11.0754C58.4752 12.1581 57.9727 13.2834 57.5551 14.4393C57.1423 15.5834 56.8121 16.7559 56.5667 17.9448C53.7477 31.6271 62.5893 45.0522 76.2715 47.8712C78.4465 48.3194 80.6782 48.4822 82.8956 48.3501C85.04 48.2203 87.1654 47.8146 89.2083 47.1493C90.4374 46.7483 91.6523 46.2859 92.8058 45.6962C93.2234 45.4815 93.7801 45.2385 94.1953 44.8965" fill="#777679"/>
</svg>
