<svg width="302" height="302" viewBox="0 0 302 302" fill="none" xmlns="http://www.w3.org/2000/svg">
<circle cx="151" cy="151" r="151" fill="#B8D8EB" fill-opacity="0.5"/>
<g clip-path="url(#clip0_77_606)">
<path d="M208.252 166.272H203.931V170.606H208.252V166.272Z" fill="#00A8E1"/>
<path d="M170.444 137.016H163.963C162.769 137.016 161.802 137.986 161.802 139.183V145.685C161.802 146.882 162.769 147.852 163.963 147.852H170.444C171.638 147.852 172.604 146.882 172.604 145.685V139.183C172.604 137.986 171.638 137.016 170.444 137.016ZM168.284 141.35V143.518H166.123V141.35H168.284Z" fill="#00A8E1"/>
<path d="M170.444 124.013H163.963C162.769 124.013 161.802 124.983 161.802 126.181V132.682C161.802 133.879 162.769 134.849 163.963 134.849H170.444C171.638 134.849 172.604 133.879 172.604 132.682V126.181C172.604 124.983 171.638 124.013 170.444 124.013ZM168.284 128.348V130.515H166.123V128.348H168.284Z" fill="#00A8E1"/>
<path d="M154.241 106.135H147.76C146.566 106.135 145.599 107.105 145.599 108.302V114.803C145.599 116.001 146.566 116.97 147.76 116.97H154.241C155.434 116.97 156.401 116.001 156.401 114.803V108.302C156.401 107.105 155.434 106.135 154.241 106.135ZM152.08 110.469V112.636H149.92V110.469H152.08Z" fill="#00A8E1"/>
<path d="M154.241 119.137H147.76C146.566 119.137 145.599 120.107 145.599 121.305V127.806C145.599 129.003 146.566 129.973 147.76 129.973H154.241C155.434 129.973 156.401 129.003 156.401 127.806V121.305C156.401 120.107 155.434 119.137 154.241 119.137ZM152.08 123.472V125.639H149.92V123.472H152.08Z" fill="#00A8E1"/>
<path d="M154.241 93.1321H147.76C146.566 93.1321 145.599 94.1019 145.599 95.2992V101.801C145.599 102.998 146.566 103.968 147.76 103.968H154.241C155.434 103.968 156.401 102.998 156.401 101.801V95.2992C156.401 94.1019 155.434 93.1321 154.241 93.1321ZM152.08 97.4663V99.6334H149.92V97.4663H152.08Z" fill="#00A8E1"/>
<path d="M161.802 113.178V119.679C161.802 120.877 162.769 121.846 163.963 121.846H170.444C171.638 121.846 172.604 120.877 172.604 119.679V113.178C172.604 111.981 171.638 111.011 170.444 111.011H163.963C162.769 111.011 161.802 111.981 161.802 113.178ZM168.284 115.345V117.512H166.123V115.345H168.284Z" fill="#00A8E1"/>
<path d="M138.037 137.016H131.556C130.362 137.016 129.396 137.986 129.396 139.183V145.685C129.396 146.882 130.362 147.852 131.556 147.852H138.037C139.231 147.852 140.198 146.882 140.198 145.685V139.183C140.198 137.986 139.231 137.016 138.037 137.016ZM135.877 141.35V143.518H133.716V141.35H135.877Z" fill="#00A8E1"/>
<path d="M138.037 124.013H131.556C130.362 124.013 129.396 124.983 129.396 126.181V132.682C129.396 133.879 130.362 134.849 131.556 134.849H138.037C139.231 134.849 140.198 133.879 140.198 132.682V126.181C140.198 124.983 139.231 124.013 138.037 124.013ZM135.877 128.348V130.515H133.716V128.348H135.877Z" fill="#00A8E1"/>
<path d="M138.037 111.011H131.556C130.362 111.011 129.396 111.981 129.396 113.178V119.679C129.396 120.877 130.362 121.846 131.556 121.846H138.037C139.231 121.846 140.198 120.877 140.198 119.679V113.178C140.198 111.981 139.231 111.011 138.037 111.011ZM135.877 115.345V117.512H133.716V115.345H135.877Z" fill="#00A8E1"/>
<path d="M179.086 103.426C179.086 102.229 178.119 101.259 176.925 101.259H169.364V88.7979C169.364 87.6005 168.397 86.6307 167.203 86.6307H134.797C133.603 86.6307 132.636 87.6005 132.636 88.7979V101.259H125.075C123.881 101.259 122.915 102.229 122.915 103.426V150.019H111.572V154.353H190.428V150.019H179.086V103.426ZM146.679 139.183C146.679 136.794 148.618 134.849 151 134.849C153.382 134.849 155.321 136.794 155.321 139.183V150.019H146.679V139.183ZM167.203 105.593H174.765V150.019H159.642V139.183C159.642 134.405 155.764 130.515 151 130.515C146.236 130.515 142.358 134.405 142.358 139.183V150.019H127.235V105.593H134.797C135.991 105.593 136.957 104.623 136.957 103.426V90.965H165.043V103.426C165.043 104.623 166.01 105.593 167.203 105.593Z" fill="#00A8E1"/>
<path d="M249.839 78.504H239.577V82.8383H247.679V117.512H202.85C202.288 117.528 201.727 117.734 201.316 118.141L195.288 124.203V119.679C195.288 118.482 194.322 117.512 193.128 117.512H190.427V82.8383H224.454V78.504H214.732V67.6685C214.732 62.89 210.854 59 206.091 59H95.9088C91.145 59 87.2671 62.89 87.2671 67.6685V134.762C84.8042 134.101 82.2657 133.771 79.7056 133.766C79.6732 133.766 79.6353 133.766 79.6029 133.766C74.8014 133.766 70.0322 134.968 65.8032 137.244L65.3279 137.498L67.3641 141.312L67.8394 141.052C70.864 139.411 74.1263 138.43 77.5397 138.138V141.345H81.8606V138.132C94.1912 139.162 104.016 149.017 105.047 161.391H101.845V165.725H105.047C104.021 178.094 94.1966 187.949 81.8606 188.984V185.771H77.5397V188.978C65.2523 187.911 55.4602 178.056 54.434 165.725H57.5558V161.391H54.3529C54.6284 158.005 55.6168 154.651 57.2155 151.655L57.4694 151.178L53.721 149.13L53.4618 149.613C51.1825 153.893 49.9835 158.714 49.9997 163.563C50.0051 172.877 54.4394 181.773 61.8604 187.369C69.0925 192.819 78.5389 194.661 87.2671 192.364V223.706C87.2671 228.485 91.145 232.375 95.9088 232.375H129.395V246.461C129.395 247.187 129.763 247.859 130.362 248.254L134.256 250.876V257.838C134.256 259.036 135.223 260.005 136.417 260.005H165.583C166.776 260.005 167.743 259.036 167.743 257.838V250.876L171.632 248.26C172.237 247.859 172.604 247.187 172.604 246.461V232.375H206.091C210.854 232.375 214.732 228.485 214.732 223.706V121.846H249.839C251.033 121.846 252 120.877 252 119.679V80.6712C252 79.4738 251.033 78.504 249.839 78.504ZM95.9088 217.741H129.395V228.035H95.9088C93.5269 228.035 91.5879 226.09 91.5879 223.701V190.869C92.3225 190.549 93.0462 190.192 93.7483 189.813V215.574C93.7483 216.771 94.7151 217.741 95.9088 217.741ZM206.091 228.035H172.604V217.741H206.091C207.284 217.741 208.251 216.771 208.251 215.574V176.024H203.93V213.407H172.604V210.698C172.604 209.501 171.637 208.531 170.444 208.531H162.812C162.574 207.599 161.726 206.906 160.722 206.906H153.09C152.852 205.974 152.004 205.28 151 205.28H143.438V196.612H175.418C176.833 196.612 178.156 196.059 179.155 195.057C180.155 194.055 180.706 192.722 180.706 191.308V174.827C180.706 173.407 180.155 172.08 179.155 171.078C178.156 170.076 176.828 169.523 175.418 169.523H126.581C125.172 169.523 123.843 170.076 122.844 171.078C121.845 172.08 121.294 173.413 121.294 174.827V191.308C121.294 192.727 121.845 194.055 122.844 195.057C123.843 196.059 125.172 196.612 126.581 196.612H129.395V213.407H98.0692V186.941C105.177 181.35 109.417 172.633 109.417 163.563C109.417 154.494 105.182 145.777 98.0692 140.186V73.0863H203.93V78.504H188.267C187.073 78.504 186.107 79.4738 186.107 80.6712V119.679C186.107 120.877 187.073 121.846 188.267 121.846H190.968V129.437C190.973 130.314 191.497 131.095 192.28 131.42C192.55 131.544 192.842 131.609 193.123 131.598C193.701 131.598 194.246 131.376 194.657 130.97L203.736 121.846H203.925V160.854H208.246V121.846H210.406V223.701C210.406 226.09 208.467 228.035 206.085 228.035H206.091ZM137.61 247.907L133.716 245.285V190.105H139.117V225.863H143.438V209.609H148.839V225.863H153.16V211.234H158.561V225.863H162.882V212.86H168.283V245.285L164.394 247.902C163.789 248.303 163.422 248.975 163.422 249.701V255.66H138.577V249.701C138.577 248.975 138.21 248.303 137.61 247.907ZM125.615 191.308V174.865C125.652 174.328 126.079 173.895 126.581 173.857H175.38C175.915 173.895 176.347 174.323 176.385 174.827V191.27C176.347 191.806 175.92 192.24 175.418 192.278H143.438V189.569C143.438 187.477 141.742 185.776 139.657 185.776H133.176C131.091 185.776 129.395 187.477 129.395 189.569V192.278H126.619C126.085 192.24 125.652 191.812 125.615 191.308ZM95.9088 63.3342H206.091C208.472 63.3342 210.411 65.2792 210.411 67.6685V78.504H208.251V70.9191C208.251 69.7218 207.284 68.752 206.091 68.752H95.9088C94.7151 68.752 93.7483 69.7218 93.7483 70.9191V137.347C93.0408 136.962 92.3171 136.61 91.5879 136.29V67.6685C91.5879 65.2792 93.5269 63.3342 95.9088 63.3342Z" fill="#00A8E1"/>
<path d="M234.176 78.504H229.855V82.8383H234.176V78.504Z" fill="#00A8E1"/>
<path d="M242.278 87.7143H208.792V92.0485H242.278V87.7143Z" fill="#00A8E1"/>
<path d="M242.278 94.9362H195.829V99.2705H242.278V94.9362Z" fill="#00A8E1"/>
<path d="M242.278 102.164H195.829V106.498H242.278V102.164Z" fill="#00A8E1"/>
<path d="M242.278 109.385H195.829V113.72H242.278V109.385Z" fill="#00A8E1"/>
<path d="M60.748 146.644C61.3962 145.901 62.0983 145.197 62.8382 144.547L63.2433 144.189L60.3861 140.933L59.9811 141.296C59.1115 142.071 58.2797 142.905 57.5074 143.778L57.1455 144.184L60.3916 147.05L60.748 146.644Z" fill="#00A8E1"/>
<path d="M68.704 177.671L77.74 168.596C79.3387 169.225 81.1211 169.062 82.5848 168.136C84.1619 167.145 85.1071 165.432 85.1071 163.563C85.1017 161.407 83.8108 159.467 81.8664 158.611V143.518H77.5456V158.611C75.6012 159.467 74.3103 161.407 74.3049 163.569C74.3049 164.241 74.4399 164.912 74.6884 165.541L65.6416 174.599L68.704 177.671ZM78.6258 163.563C78.6258 162.967 79.1119 162.48 79.706 162.48C80.1597 162.48 80.5323 162.729 80.7052 163.152C80.878 163.569 80.7916 164.013 80.4729 164.333C80.1543 164.652 79.7114 164.739 79.2955 164.566C78.8796 164.392 78.6312 164.018 78.6312 163.563H78.6258Z" fill="#00A8E1"/>
<path d="M156.401 63.876H145.599V68.2103H156.401V63.876Z" fill="#00A8E1"/>
<path d="M174.225 180.9H166.663V185.235H174.225V180.9Z" fill="#00A8E1"/>
<path d="M164.503 180.9H156.941V185.235H164.503V180.9Z" fill="#00A8E1"/>
<path d="M154.781 180.9H147.219V185.235H154.781V180.9Z" fill="#00A8E1"/>
<path d="M145.059 180.9H137.498V185.235H145.059V180.9Z" fill="#00A8E1"/>
<path d="M135.337 180.9H127.775V185.235H135.337V180.9Z" fill="#00A8E1"/>
</g>
<defs>
<clipPath id="clip0_77_606">
<rect width="202" height="201" fill="white" transform="translate(50 59)"/>
</clipPath>
</defs>
</svg>
