<svg width="65" height="65" viewBox="0 0 65 65" fill="none" xmlns="http://www.w3.org/2000/svg">
<path fill-rule="evenodd" clip-rule="evenodd" d="M32.28 0C14.48 0 0 14.48 0 32.28C0 50.08 14.48 64.56 32.28 64.56C50.08 64.56 64.56 50.08 64.56 32.28C64.56 14.48 50.08 0 32.28 0ZM41.23 19.15C41.23 19.42 41.01 19.64 40.74 19.64H36.86C35.91 19.64 35.14 20.41 35.14 21.36V25.42H40.66C40.95 25.42 41.17 25.66 41.15 25.95L40.67 31.68C40.65 31.93 40.44 32.13 40.18 32.13H35.14V51.15C35.14 51.42 34.92 51.64 34.65 51.64H27.7C27.43 51.64 27.21 51.42 27.21 51.15V32.13H23.74C23.47 32.13 23.25 31.91 23.25 31.64V25.91C23.25 25.64 23.47 25.42 23.74 25.42H27.21V19.9C27.21 16.05 30.33 12.93 34.18 12.93H40.74C41.01 12.93 41.23 13.15 41.23 13.42V19.15Z" fill="#00A8E1"/>
</svg>
