<svg width="291" height="15" viewBox="0 0 291 15" fill="none" xmlns="http://www.w3.org/2000/svg">
<path d="M4.91939 0.84437V10.3505C4.91939 11.7557 4.94411 12.658 4.99852 13.0672C5.05292 13.4715 5.20624 13.7575 5.47331 13.9202C5.73544 14.0829 6.28936 14.1667 7.14002 14.1667C8.38141 14.1667 9.40517 13.9991 10.2014 13.6589C11.0026 13.3187 11.6703 12.653 12.2045 11.6521C12.7386 10.6562 13.0106 9.38407 13.0106 7.84081C13.0106 6.63776 12.8524 5.5629 12.5408 4.62117C12.2292 3.6745 11.7841 2.91028 11.2005 2.31861C10.6169 1.72695 9.97394 1.32757 9.26175 1.11062C8.55451 0.89861 7.64449 0.790141 6.53664 0.790141C6.0025 0.790141 5.46342 0.809856 4.91939 0.84437ZM0.517677 0.54855L2.8669 0.435142C4.82542 0.336531 6.14099 0.287231 6.8235 0.287231C8.94522 0.287231 10.5971 0.607713 11.7791 1.25361C12.9661 1.89458 13.8464 2.76729 14.4251 3.87173C15.0038 4.97617 15.2956 6.24333 15.2956 7.68305C15.2956 8.72339 15.1373 9.67991 14.8208 10.5428C14.5042 11.4056 14.074 12.1255 13.52 12.6974C12.9711 13.2644 12.3331 13.6983 11.606 13.9991C10.879 14.2949 10.1915 14.4823 9.53871 14.5562C8.88587 14.6302 7.96596 14.6647 6.78393 14.6647H0.458328V14.1815H1.04687C1.6552 14.1815 2.08053 14.1075 2.31298 13.9498C2.55038 13.7969 2.69875 13.5553 2.76304 13.2299C2.82734 12.9045 2.8669 12.1501 2.8669 10.9569V4.0936C2.8669 2.95957 2.83228 2.22986 2.76304 1.89458C2.69875 1.56423 2.55532 1.33742 2.34266 1.21416C2.12999 1.0909 1.66014 1.03173 0.938065 1.03173H0.517677V0.54855Z" fill="white"/>
<path d="M24.5194 7.31816C25.0436 7.30337 25.5876 7.28364 26.1515 7.25406C26.7103 7.22448 27.1999 7.15052 27.6154 7.02232C28.0308 6.89413 28.3671 6.7117 28.6194 6.47011C28.8766 6.22851 29.0793 5.91296 29.2277 5.51851C29.3761 5.129 29.4503 4.64581 29.4503 4.06893C29.4503 3.06803 29.198 2.26929 28.6985 1.66776C28.194 1.06623 27.101 0.765463 25.4195 0.765463C25.1623 0.765463 24.8606 0.780268 24.5243 0.809851V7.31324L24.5194 7.31816ZM35.311 14.6647H31.4681C30.7856 14.1864 29.747 12.9439 28.3424 10.9273C27.8924 10.2814 27.4275 9.6651 26.9428 9.07343C26.4581 8.48177 26.1267 8.12184 25.9437 7.99364C25.7607 7.86545 25.4788 7.80136 25.0931 7.80136H24.5243V10.9618C24.5243 12.0811 24.549 12.8108 24.6034 13.1609C24.6578 13.506 24.7963 13.7624 25.0238 13.93C25.2513 14.0977 25.6915 14.1815 26.3344 14.1815H27.017V14.6647H20.1869V14.1815H20.6518C21.2651 14.1815 21.6854 14.1026 21.9228 13.9497C22.1553 13.792 22.3086 13.5553 22.368 13.2299C22.4323 12.9045 22.4619 12.1452 22.4619 10.9569V3.98019C22.4619 2.84616 22.4323 2.11644 22.368 1.79102C22.3037 1.46068 22.1652 1.23387 21.9476 1.10567C21.73 0.977478 21.2601 0.918324 20.538 0.918324H20.2957V0.435125L22.3383 0.326653C23.6984 0.262556 24.7815 0.232971 25.5777 0.232971C26.9378 0.232971 28.0457 0.36117 28.8963 0.607697C29.752 0.859155 30.4394 1.27331 30.9637 1.84525C31.4879 2.4172 31.75 3.10748 31.75 3.9013C31.75 4.83317 31.4088 5.62698 30.7164 6.28274C30.0289 6.9385 29.02 7.35268 27.6846 7.51046C28.2831 7.79643 29.2425 8.83184 30.568 10.6167C31.6462 12.0663 32.4968 13.0129 33.1151 13.4616C33.7333 13.9103 34.4603 14.147 35.306 14.1765V14.6597L35.311 14.6647Z" fill="white"/>
<path d="M39.1439 0.918318V0.43512H45.6674V0.918318H45.3607C44.6584 0.918318 44.1985 0.977473 43.9809 1.09088C43.7632 1.20428 43.6198 1.42122 43.5407 1.73678C43.4665 2.05233 43.4319 2.80178 43.4319 3.98018V10.9569C43.4319 12.0761 43.4566 12.8058 43.511 13.1559C43.5654 13.5011 43.7039 13.7574 43.9314 13.9251C44.1589 14.0927 44.5941 14.1765 45.242 14.1765H45.6624V14.6597H39.139V14.1765H39.5594C40.1677 14.1765 40.593 14.1026 40.8255 13.9448C41.0629 13.792 41.2112 13.5504 41.2755 13.2249C41.3398 12.8995 41.3695 12.1402 41.3695 10.952V3.97525C41.3695 2.84122 41.3349 2.1115 41.2755 1.78608C41.2112 1.45574 41.0728 1.22893 40.8551 1.10567C40.6375 0.977472 40.1677 0.918318 39.4456 0.918318H39.139H39.1439Z" fill="white"/>
<path d="M57.8487 14.9999H57.1959L52.2699 3.68928C52.1809 3.48713 52.0375 3.13706 51.8396 2.63907C51.5676 1.96359 51.2758 1.51491 50.9741 1.28317C50.6724 1.05144 50.1828 0.928175 49.5102 0.913383V0.43512H55.6577V0.913383C54.8912 0.913383 54.3768 0.972548 54.1147 1.08102C53.8525 1.19442 53.719 1.40643 53.719 1.72198C53.719 1.92414 53.8822 2.40241 54.2136 3.15185L58.3186 12.5938L61.6124 4.73455C62.1663 3.4181 62.4433 2.56019 62.4433 2.16575C62.4433 1.35714 61.8696 0.942966 60.7271 0.913383V0.43512H65.0843V0.913383C64.6442 0.928175 64.2534 1.08595 63.9171 1.38671C63.5808 1.68747 63.289 2.12629 63.0417 2.70809L62.0823 4.94163L57.8388 14.995L57.8487 14.9999Z" fill="white"/>
<path d="M80.698 10.2321H81.2025L80.8959 14.6597H69.0755V14.1765H69.3723C70.0795 14.1765 70.5395 14.0829 70.7423 13.8955C70.95 13.7081 71.0786 13.4665 71.1379 13.1756C71.1923 12.8847 71.222 12.1452 71.222 10.9569V3.98018C71.222 2.89546 71.1923 2.18053 71.133 1.84033C71.0736 1.50012 70.9351 1.25851 70.7225 1.12046C70.5098 0.982402 70.0597 0.918318 69.3723 0.918318V0.43512H79.5704L79.9067 3.98018H79.4121C79.1896 2.98914 78.9126 2.27914 78.5862 1.86497C78.2598 1.45081 77.8691 1.18456 77.419 1.07608C76.9689 0.967612 76.2469 0.913383 75.2528 0.913383H73.2745V6.88426H74.7928C75.4852 6.88426 75.9748 6.8251 76.2518 6.70677C76.5288 6.58844 76.7118 6.40601 76.8008 6.16441C76.8898 5.92281 76.9343 5.45442 76.9343 4.75428H77.4289V9.62564H76.9343C76.9343 8.83676 76.8651 8.30427 76.7365 8.03309C76.603 7.76191 76.4101 7.58934 76.1529 7.51045C75.8957 7.43156 75.4654 7.39211 74.8522 7.39211H73.2844V10.7597C73.2844 12.4459 73.3932 13.437 73.6108 13.7328C73.8284 14.0336 74.412 14.1765 75.3665 14.1765H76.4299C77.1816 14.1765 77.7998 14.0829 78.2845 13.8856C78.7692 13.6933 79.2291 13.2989 79.6693 12.7023C80.1095 12.1057 80.4557 11.2823 80.7079 10.2321" fill="white"/>
<path d="M98.3741 14.9852L88.2799 1.64802V11.5239C88.2799 12.3424 88.3194 12.8798 88.4035 13.1411C88.4826 13.4024 88.7151 13.6391 89.091 13.8561C89.4668 14.073 90.0356 14.1815 90.7972 14.1815V14.6647H85.4707V14.1815C86.1532 14.1322 86.6675 14.0089 87.0286 13.8067C87.3847 13.6046 87.5973 13.3926 87.6666 13.1608C87.7358 12.9291 87.7655 12.3867 87.7655 11.5239V3.98017C87.7655 2.89052 87.716 2.15587 87.6122 1.78608C87.5083 1.41628 87.35 1.17963 87.1275 1.07116C86.9049 0.967614 86.4153 0.913374 85.6487 0.913374V0.430176H89.8575L98.3098 11.5634V3.05323C98.3098 2.42212 98.2455 1.9833 98.1169 1.73185C97.9883 1.48039 97.7213 1.28316 97.3207 1.13524C96.9201 0.987324 96.4403 0.913374 95.8765 0.913374V0.430176H101.055V0.913374C100.451 0.96268 99.9765 1.07608 99.6303 1.26344C99.2841 1.44587 99.0616 1.66282 98.9676 1.91921C98.8736 2.1756 98.8242 2.60454 98.8242 3.21593V14.9901H98.3741V14.9852Z" fill="white"/>
<path d="M125.492 7.52523H118.038V10.9569C118.038 12.0761 118.068 12.8108 118.122 13.1559C118.177 13.501 118.32 13.7574 118.548 13.9251C118.775 14.0927 119.211 14.1765 119.849 14.1765H120.215V14.6597H113.795V14.1765H114.166C114.774 14.1765 115.2 14.0976 115.432 13.9448C115.669 13.792 115.818 13.5553 115.887 13.2249C115.951 12.8995 115.986 12.1451 115.986 10.952V3.97524C115.986 2.84121 115.951 2.1115 115.887 1.78115C115.818 1.45081 115.679 1.224 115.467 1.10074C115.249 0.972543 114.784 0.913374 114.062 0.913374H113.8V0.430176H120.219V0.913374H119.957C119.26 0.913374 118.805 0.972544 118.587 1.08595C118.37 1.20428 118.226 1.41629 118.152 1.73185C118.078 2.0474 118.043 2.79191 118.043 3.97524V6.80044H125.497V3.97524C125.497 2.84121 125.467 2.1115 125.403 1.78115C125.338 1.45081 125.2 1.224 124.987 1.10074C124.775 0.972543 124.305 0.913374 123.583 0.913374H123.202V0.430176H129.696V0.913374H129.483C128.781 0.913374 128.321 0.972544 128.103 1.08595C127.885 1.20428 127.742 1.41629 127.668 1.73185C127.594 2.0474 127.559 2.79191 127.559 3.97524V10.952C127.559 12.0712 127.584 12.8058 127.638 13.151C127.688 13.4961 127.831 13.7525 128.063 13.9201C128.296 14.0878 128.731 14.1716 129.369 14.1716H129.696V14.6548H123.202V14.1716H123.696C124.3 14.1716 124.72 14.0927 124.953 13.9399C125.19 13.787 125.338 13.5504 125.403 13.22C125.467 12.8946 125.497 12.1402 125.497 10.947V7.51536L125.492 7.52523Z" fill="white"/>
<path d="M137.164 7.52527C137.164 9.81304 137.624 11.5289 138.538 12.6777C139.453 13.8265 140.828 14.3984 142.658 14.3984C144.266 14.3984 145.537 13.8265 146.467 12.6777C147.401 11.5289 147.866 9.82289 147.866 7.54498C147.866 5.26707 147.406 3.63999 146.486 2.46159C145.566 1.28319 144.236 0.696465 142.485 0.696465C140.734 0.696465 139.448 1.27334 138.534 2.42215C137.619 3.5759 137.159 5.27694 137.159 7.52527M134.75 7.45132C134.75 5.25229 135.487 3.49209 136.961 2.16577C138.435 0.834525 140.274 0.173828 142.475 0.173828C144.676 0.173828 146.556 0.82959 148.049 2.14605C149.538 3.4625 150.285 5.25721 150.285 7.53019C150.285 9.80317 149.572 11.519 148.143 12.8798C146.714 14.2407 144.839 14.926 142.51 14.926C140.18 14.926 138.385 14.2407 136.931 12.8798C135.477 11.5141 134.755 9.70949 134.755 7.45624" fill="white"/>
<path d="M155.858 14.5168V9.94123H156.383C156.981 12.9193 158.396 14.4132 160.626 14.4132C161.63 14.4132 162.407 14.1273 162.956 13.5603C163.505 12.9883 163.782 12.3523 163.782 11.6423C163.782 10.9323 163.539 10.3307 163.055 9.84755C162.57 9.36929 161.685 8.86145 160.404 8.31416C159.261 7.82604 158.396 7.39707 157.812 7.02728C157.228 6.65749 156.778 6.18416 156.452 5.59743C156.126 5.01069 155.962 4.38451 155.962 3.71889C155.962 2.7032 156.313 1.86007 157.021 1.18458C157.723 0.509099 158.618 0.173828 159.696 0.173828C160.3 0.173828 160.868 0.272442 161.403 0.469664C161.937 0.666885 162.486 1.07119 163.045 1.68751C163.366 1.30293 163.549 0.888756 163.594 0.435146H164.059V4.16264H163.594C163.327 3.07792 162.852 2.22493 162.179 1.60368C161.502 0.982434 160.72 0.671818 159.825 0.671818C158.93 0.671818 158.356 0.898615 157.955 1.35716C157.56 1.8157 157.362 2.31861 157.362 2.86097C157.362 3.52166 157.614 4.07389 158.114 4.53243C158.603 4.9959 159.494 5.5136 160.775 6.08555C162.001 6.63284 162.896 7.07166 163.455 7.40201C164.014 7.73235 164.459 8.19582 164.795 8.78255C165.132 9.36929 165.3 10.0497 165.3 10.8189C165.3 12.0367 164.894 13.0277 164.078 13.7871C163.262 14.5513 162.174 14.9309 160.814 14.9309C159.251 14.9309 157.946 14.3294 156.902 13.1362C156.67 13.4666 156.496 13.9251 156.383 14.5217H155.858V14.5168Z" fill="white"/>
<path d="M174.479 7.44146H175.498C176.319 7.44146 176.982 7.35764 177.486 7.19494C177.991 7.03223 178.411 6.68709 178.747 6.15952C179.084 5.63195 179.252 4.98605 179.252 4.21688C179.252 3.04341 178.965 2.18057 178.381 1.62835C177.803 1.08106 176.863 0.804956 175.567 0.804956C175.088 0.804956 174.726 0.819741 174.474 0.844394V7.43654L174.479 7.44146ZM174.479 7.9641V10.9569C174.479 12.0762 174.504 12.8059 174.558 13.156C174.613 13.5011 174.756 13.7575 174.984 13.9251C175.216 14.0928 175.651 14.1766 176.289 14.1766H176.759V14.6598H170.226V14.1766H170.607C171.215 14.1766 171.64 14.1026 171.873 13.9449C172.11 13.792 172.259 13.5504 172.323 13.225C172.387 12.8996 172.417 12.1403 172.417 10.952V3.97529C172.417 2.84127 172.382 2.11156 172.323 1.78121C172.259 1.45086 172.12 1.22406 171.902 1.10079C171.685 0.972598 171.215 0.913429 170.493 0.913429H170.231V0.43023L172.021 0.36613C173.45 0.316825 174.568 0.292175 175.369 0.292175C176.843 0.292175 177.976 0.405584 178.772 0.637319C179.568 0.869055 180.221 1.27829 180.731 1.86502C181.235 2.45175 181.492 3.19134 181.492 4.0887C181.492 4.86773 181.319 5.55306 180.973 6.14473C180.627 6.73639 180.127 7.19 179.479 7.50063C178.831 7.81125 177.689 7.9641 176.052 7.9641H174.484H174.479Z" fill="white"/>
<path d="M185.439 0.918318V0.43512H191.962V0.918318H191.656C190.953 0.918318 190.494 0.977473 190.276 1.09088C190.058 1.20428 189.915 1.42122 189.841 1.73678C189.766 2.05233 189.732 2.80178 189.732 3.98018V10.9569C189.732 12.0761 189.757 12.8058 189.811 13.1559C189.865 13.5011 190.004 13.7574 190.231 13.9251C190.459 14.0927 190.894 14.1765 191.542 14.1765H191.962V14.6597H185.439V14.1765H185.859C186.468 14.1765 186.893 14.1026 187.125 13.9448C187.363 13.792 187.511 13.5504 187.571 13.2249C187.635 12.8995 187.669 12.1402 187.669 10.952V3.97525C187.669 2.84122 187.635 2.1115 187.571 1.78608C187.506 1.45574 187.368 1.22893 187.15 1.10567C186.933 0.977472 186.463 0.918318 185.741 0.918318H185.434H185.439Z" fill="white"/>
<path d="M196.78 3.85692H196.295L196.369 0.43512H210.222L210.296 3.85692H209.841C209.678 2.92011 209.46 2.24463 209.179 1.82554C208.897 1.41137 208.6 1.15497 208.273 1.06129C207.952 0.967613 207.398 0.918318 206.622 0.918318H204.327V10.9618C204.327 12.0712 204.351 12.8058 204.406 13.1559C204.455 13.506 204.599 13.7624 204.831 13.935C205.064 14.1026 205.499 14.1864 206.137 14.1864H206.829V14.6696H199.712V14.1864H200.449C201.058 14.1864 201.483 14.1124 201.715 13.9547C201.953 13.8018 202.101 13.5602 202.17 13.2348C202.235 12.9094 202.269 12.1501 202.269 10.9618V0.918318H200.157C199.238 0.918318 198.624 0.962688 198.308 1.05144C197.991 1.14019 197.695 1.4015 197.418 1.84525C197.141 2.28407 196.928 2.95956 196.78 3.85692Z" fill="white"/>
<path d="M221.335 8.94525L218.808 2.88067L216.29 8.94525H221.33H221.335ZM221.513 9.41858H216.093L215.727 10.3209C215.178 11.6275 214.906 12.4804 214.906 12.8798C214.906 13.3088 215.049 13.6293 215.341 13.8511C215.633 14.073 216.009 14.1815 216.464 14.1815V14.6647H212.225V14.1815C212.853 14.0829 213.328 13.861 213.635 13.5159C213.941 13.1707 214.317 12.441 214.747 11.3267C214.782 11.2232 214.95 10.8188 215.252 10.1088L219.401 0.232971H219.812L224.58 11.5338L225.232 13.0228C225.381 13.3581 225.579 13.6243 225.826 13.8166C226.078 14.0089 226.449 14.1322 226.949 14.1765V14.6597H221.34V14.1765C222.028 14.1765 222.492 14.1272 222.735 14.0237C222.977 13.9251 223.101 13.7229 223.101 13.4222C223.101 13.2693 222.938 12.8108 222.616 12.0465L221.523 9.41364L221.513 9.41858Z" fill="white"/>
<path d="M242.884 10.4786L242.78 14.6647H230.653V14.1815H231.073C231.687 14.1815 232.107 14.1026 232.344 13.9497C232.577 13.7969 232.73 13.5553 232.794 13.2299C232.864 12.9045 232.893 12.1501 232.893 10.9569V3.98018C232.893 2.84616 232.859 2.11643 232.794 1.78608C232.73 1.45574 232.587 1.22893 232.374 1.10567C232.161 0.977472 231.692 0.913383 230.969 0.913383H230.653V0.43512H237.508V0.913383H236.875C236.172 0.913383 235.712 0.972542 235.495 1.09088C235.277 1.20428 235.134 1.42122 235.06 1.73678C234.985 2.05233 234.946 2.80178 234.946 3.98018V11.4302C234.946 12.4607 234.976 13.1017 235.03 13.363C235.084 13.6194 235.238 13.8215 235.485 13.9645C235.732 14.1075 236.271 14.1815 237.092 14.1815H238.175C239.051 14.1815 239.704 14.1026 240.129 13.9497C240.549 13.7969 240.955 13.4616 241.341 12.939C241.721 12.4213 242.073 11.5979 242.389 10.4737H242.884V10.4786Z" fill="white"/>
<path d="M246.85 0.918318V0.43512H253.379V0.918318H253.072C252.37 0.918318 251.91 0.977473 251.697 1.09088C251.479 1.20428 251.336 1.42122 251.262 1.73678C251.188 2.05233 251.153 2.80178 251.153 3.98018V10.9569C251.153 12.0761 251.178 12.8058 251.232 13.1559C251.287 13.5011 251.425 13.7574 251.653 13.9251C251.88 14.0927 252.315 14.1765 252.963 14.1765H253.384V14.6597H246.855V14.1765H247.276C247.884 14.1765 248.309 14.1026 248.542 13.9448C248.779 13.792 248.927 13.5504 248.992 13.2249C249.056 12.8995 249.086 12.1402 249.086 10.952V3.97525C249.086 2.84122 249.056 2.1115 248.992 1.78608C248.927 1.45574 248.784 1.22893 248.571 1.10567C248.354 0.977472 247.884 0.918318 247.162 0.918318H246.855H246.85Z" fill="white"/>
<path d="M258.191 3.85692H257.706L257.78 0.43512H271.633L271.708 3.85692H271.257C271.094 2.92011 270.877 2.24463 270.595 1.82554C270.313 1.41137 270.011 1.15497 269.69 1.06129C269.368 0.967613 268.819 0.918318 268.038 0.918318H265.743V10.9618C265.743 12.0712 265.768 12.8058 265.822 13.1559C265.872 13.506 266.015 13.7624 266.247 13.935C266.48 14.1026 266.915 14.1864 267.553 14.1864H268.246V14.6696H261.134V14.1864H261.87C262.479 14.1864 262.904 14.1124 263.137 13.9547C263.369 13.8018 263.522 13.5602 263.587 13.2348C263.656 12.9094 263.686 12.1501 263.686 10.9618V0.918318H261.574C260.654 0.918318 260.036 0.962688 259.724 1.05144C259.407 1.14019 259.111 1.4015 258.834 1.84525C258.557 2.28407 258.344 2.95956 258.201 3.85692" fill="white"/>
<path d="M283.548 8.44232L286.357 3.72872C286.822 2.95955 287.054 2.41226 287.054 2.09178C287.054 1.79594 286.93 1.5297 286.688 1.28317C286.441 1.03665 286.006 0.918318 285.373 0.918318V0.43512H290.036V0.918318C289.393 1.00707 288.869 1.24866 288.474 1.63817C288.078 2.02276 287.568 2.73276 286.955 3.75338L283.755 9.07343V10.9618C283.755 12.1747 283.79 12.9439 283.864 13.2743C283.938 13.6095 284.097 13.8413 284.339 13.9793C284.581 14.1174 285.056 14.1815 285.768 14.1815V14.6647H279.685V14.1815H279.917C280.526 14.1815 280.951 14.1026 281.184 13.9497C281.421 13.7969 281.569 13.5553 281.634 13.2299C281.698 12.9045 281.728 12.1501 281.728 10.9569V9.20656L278.172 3.38359C277.45 2.21012 276.97 1.50505 276.727 1.28317C276.49 1.05637 276.06 0.93311 275.446 0.918318V0.43512H281.233V0.918318C280.155 0.918318 279.611 1.16484 279.611 1.65296C279.611 1.84526 279.789 2.2397 280.145 2.82644L283.557 8.4374L283.548 8.44232Z" fill="white"/>
</svg>
