<svg width="315" height="180" viewBox="0 0 315 180" fill="none" xmlns="http://www.w3.org/2000/svg">
<path d="M37.9536 138.923C36.5391 137.089 34.7488 135.684 32.5825 134.693C30.4163 133.707 28.1759 133.213 25.8662 133.213C23.0422 133.213 20.4803 133.741 18.2003 134.796C15.9154 135.851 13.9618 137.296 12.3347 139.13C10.7075 140.959 9.45131 143.114 8.55119 145.579C7.65601 148.045 7.21089 150.687 7.21089 153.503C7.21089 156.136 7.63622 158.621 8.48194 160.972C9.32767 163.319 10.5542 165.39 12.1566 167.17C13.7591 168.955 15.7126 170.365 18.0223 171.401C20.327 172.436 22.9482 172.949 25.8662 172.949C28.7842 172.949 31.262 172.362 33.4283 171.189C35.5945 170.015 37.4343 168.368 38.9428 166.253L44.665 170.552C44.2891 171.07 43.6313 171.81 42.6867 172.771C41.747 173.733 40.4957 174.699 38.9428 175.656C37.3898 176.622 35.5154 177.465 33.3244 178.19C31.1334 178.92 28.6012 179.284 25.7277 179.284C21.7712 179.284 18.2003 178.535 15.0202 177.031C11.8401 175.532 9.12984 173.555 6.89436 171.115C4.65394 168.674 2.94766 165.913 1.77057 162.836C0.593487 159.76 0.00494385 156.648 0.00494385 153.503C0.00494385 149.652 0.642944 146.092 1.914 142.828C3.18506 139.564 4.96552 136.749 7.25045 134.372C9.53539 132.005 12.2803 130.157 15.4851 128.845C18.685 127.529 22.2212 126.873 26.0838 126.873C29.3826 126.873 32.6221 127.509 35.8022 128.776C38.9823 130.043 41.5838 131.996 43.6115 134.624L37.9586 138.923H37.9536Z" fill="#00A8E1"/>
<path d="M52.865 128.145H59.6456V148.858H85.5861V128.145H92.3716V178.027H85.5861V155.194H59.6456V178.027H52.865V128.145Z" fill="#00A8E1"/>
<path d="M112.016 150.125H120.923C122.244 150.125 123.55 150.022 124.845 149.81C126.141 149.598 127.293 149.213 128.307 148.651C129.321 148.084 130.132 147.275 130.746 146.22C131.359 145.165 131.666 143.789 131.666 142.098C131.666 140.407 131.359 139.031 130.746 137.976C130.132 136.921 129.321 136.108 128.307 135.546C127.293 134.983 126.141 134.594 124.845 134.382C123.55 134.17 122.244 134.066 120.923 134.066H112.016V150.13V150.125ZM105.231 128.145H122.827C126.032 128.145 128.668 128.579 130.746 129.446C132.818 130.314 134.455 131.419 135.657 132.755C136.859 134.096 137.694 135.6 138.164 137.266C138.634 138.933 138.871 140.54 138.871 142.093C138.871 143.646 138.59 145.229 138.026 146.708C137.462 148.187 136.646 149.524 135.587 150.722C134.529 151.92 133.228 152.931 131.7 153.749C130.167 154.573 128.461 155.08 126.576 155.263L140.781 178.022H132.299L119.578 156.037H112.016V178.022H105.231V128.14V128.145Z" fill="#00A8E1"/>
<path d="M171.38 172.954C174.253 172.954 176.845 172.426 179.155 171.366C181.459 170.311 183.442 168.886 185.094 167.101C186.741 165.316 188.012 163.216 188.912 160.795C189.803 158.379 190.253 155.805 190.253 153.079C190.253 150.352 189.803 147.783 188.912 145.362C188.017 142.946 186.746 140.841 185.094 139.056C183.442 137.271 181.464 135.851 179.155 134.796C176.845 133.741 174.253 133.213 171.38 133.213C168.506 133.213 165.915 133.741 163.605 134.796C161.295 135.851 159.317 137.271 157.67 139.056C156.023 140.841 154.747 142.946 153.852 145.362C152.957 147.783 152.512 150.352 152.512 153.079C152.512 155.805 152.957 158.374 153.852 160.795C154.747 163.211 156.018 165.316 157.67 167.101C159.317 168.886 161.295 170.311 163.605 171.366C165.915 172.426 168.506 172.954 171.38 172.954ZM171.38 179.294C167.562 179.294 164.055 178.624 160.85 177.288C157.646 175.946 154.901 174.102 152.616 171.755C150.331 169.409 148.54 166.638 147.245 163.443C145.949 160.248 145.301 156.796 145.301 153.084C145.301 149.371 145.949 145.924 147.245 142.724C148.54 139.529 150.331 136.758 152.616 134.412C154.901 132.065 157.646 130.221 160.85 128.879C164.055 127.543 167.567 126.868 171.38 126.868C175.193 126.868 178.704 127.538 181.909 128.879C185.114 130.216 187.859 132.06 190.144 134.412C192.429 136.758 194.219 139.534 195.52 142.724C196.811 145.919 197.464 149.371 197.464 153.084C197.464 156.796 196.816 160.248 195.52 163.443C194.224 166.638 192.429 169.409 190.144 171.755C187.859 174.102 185.114 175.946 181.909 177.288C178.704 178.624 175.198 179.294 171.38 179.294Z" fill="#00A8E1"/>
<path d="M206.717 128.145H216.821L232.722 165.908H233.004L248.766 128.145H258.875V178.027H252.089V137.02H251.946L235.056 178.027H230.531L213.641 137.02H213.498V178.027H206.717V128.145Z" fill="#00A8E1"/>
<path d="M299.084 159.779L289.756 136.882H289.613L280.142 159.779H299.084ZM286.927 128.145H293.075L314.485 178.027H306.572L301.552 165.696H277.733L272.787 178.027H264.869L286.917 128.145H286.927Z" fill="#00A8E1"/>
<path d="M144.406 11.1529C145.672 10.2654 146.978 9.43706 148.328 8.68268C149.5 8.02692 150.746 7.50428 151.894 6.79922C152.912 6.17304 153.55 5.19679 153.165 3.97402C152.774 2.74138 151.928 1.56298 151.038 0.636037C150.227 -0.207086 148.941 -0.113405 147.957 0.350066C146.834 0.882564 145.726 1.45451 144.638 2.06096C142.467 3.27881 140.385 4.64457 138.407 6.15332C136.552 7.56345 134.796 9.10178 133.139 10.7387L138.51 16.0933C140.335 14.2838 142.309 12.6271 144.411 11.148" fill="#00A8E1"/>
<path d="M197.503 93.843C198.581 92.9605 199.328 91.5109 198.319 90.0514C195.99 86.6691 189.417 76.6009 187.829 74.2195C186.633 72.6959 184.877 73.1988 184.021 73.5785C183.655 73.7658 183.23 73.9877 183.225 73.9877C177.71 76.6699 171.301 77.6265 164.837 76.3001C149.297 73.1101 139.257 57.9092 142.457 42.4125C143.639 36.6931 146.463 31.7231 150.336 27.8871C156.953 21.3295 166.642 18.0852 176.449 20.0969C181.697 21.1717 186.306 23.6222 190.006 26.9849C190.391 27.3892 191.005 28.3062 189.773 29.1543C188.784 29.8347 185.826 31.7478 185.292 32.0978C184.738 32.4627 184.155 32.7832 183.472 32.7536C182.76 32.7191 182.26 32.3789 181.692 31.9992C181.687 31.9943 181.677 31.9894 181.672 31.9844C179.595 30.5792 177.221 29.5487 174.614 29.0113C167.923 27.6357 161.31 29.8495 156.79 34.3215C154.139 36.9445 152.205 40.3417 151.399 44.2516C150.855 46.8845 150.86 49.621 151.419 52.249C151.963 54.803 153.026 57.2387 154.52 59.3785C155.237 60.4041 156.048 61.3606 156.943 62.2333C157.393 62.6721 157.863 63.0863 158.358 63.4807C159.02 64.0083 160.291 64.5309 160.979 63.6287C161.34 63.1504 163.412 59.8124 163.61 59.4969C164.213 58.4368 163.066 57.5296 163.066 57.5296C159.683 54.7931 157.908 50.3112 158.842 45.7752C159.342 43.374 160.529 41.2834 162.156 39.6761C164.926 36.9445 168.971 35.5936 173.066 36.4318C175.505 36.9298 177.676 38.2018 179.328 39.8832C179.328 39.8832 179.328 39.8881 179.338 39.8979C179.417 39.9768 179.496 40.0607 179.57 40.1445C180.03 40.5784 181.108 41.3278 182.483 40.5784C183.289 40.0409 184.095 39.5035 184.906 38.9611C186.662 37.7926 188.418 36.6191 190.169 35.4506C191.875 34.3116 193.581 33.1727 195.288 32.0337C196.049 31.5259 196.836 30.9835 197.622 30.4855C198.364 30.0171 199.249 29.4304 199.645 28.6169C200.421 27.0243 198.962 25.412 197.894 24.1991C196.771 22.927 195.56 21.7388 194.269 20.6343C191.657 18.3958 188.725 16.5321 185.579 15.122C183.146 14.0274 180.584 13.204 177.968 12.6666C165.564 10.1175 153.313 14.2246 144.94 22.5178C140.049 27.3694 136.483 33.6509 134.989 40.8742C130.943 60.4682 143.639 79.6874 163.289 83.7206C170.193 85.1357 177.048 84.4947 183.215 82.2168C183.215 82.2168 183.23 82.2119 183.25 82.202C183.294 82.1823 183.339 82.1724 183.378 82.1527C183.759 82.0344 184.719 81.847 185.342 82.8134L188.878 88.2912L189.081 88.6068C189.244 88.9519 189.333 89.5091 188.497 89.8937C180.253 93.419 170.885 94.5629 161.449 92.6252C136.868 87.5763 120.993 63.5399 126.052 39.0351C126.838 35.2337 128.11 31.5308 129.841 28.0498C131.522 24.6675 133.634 21.4972 136.112 18.6325C136.868 17.7549 137.67 16.9068 138.496 16.0884L133.12 10.7289C133.006 10.8423 132.887 10.9507 132.773 11.0641C131.013 12.8441 129.381 14.7472 127.887 16.754C126.379 18.7854 125.018 20.9203 123.817 23.1489C122.6 25.412 121.547 27.7639 120.671 30.1798C119.806 32.5712 119.113 35.0216 118.599 37.5066C112.689 66.1038 131.225 94.1635 159.911 100.056C164.471 100.992 169.149 101.333 173.798 101.056C178.294 100.785 182.75 99.9372 187.033 98.5468C189.61 97.7086 192.157 96.7422 194.575 95.5096C195.451 95.0609 196.618 94.553 197.488 93.8381" fill="white"/>
</svg>
