<svg width="302" height="302" viewBox="0 0 302 302" fill="none" xmlns="http://www.w3.org/2000/svg">
<circle cx="151" cy="151" r="151" fill="#B8D8EB" fill-opacity="0.5"/>
<g clip-path="url(#clip0_77_568)">
<path d="M161.306 209.053H154.2V202.638C154.2 199.312 151.488 196.604 148.153 196.604H136.498C133.167 196.604 130.456 199.312 130.456 202.638V209.053H123.35C120.817 209.053 118.762 211.104 118.762 213.629V239.419C118.762 241.949 120.817 244 123.35 244H161.306C163.839 244 165.889 241.949 165.889 239.419V213.629C165.889 211.1 163.834 209.053 161.301 209.053H161.306ZM148.08 209.053H136.571V202.71H148.08V209.053Z" fill="#00A8E1"/>
<path d="M163.882 108.416L155.839 105.959C154.297 105.486 152.668 106.355 152.194 107.89L149.729 115.927C150.251 115.869 150.773 115.835 151.295 115.835C156.013 115.835 160.257 118.186 162.809 121.859L165.816 112.055C166.285 110.516 165.42 108.884 163.882 108.416Z" fill="#00A8E1"/>
<path d="M218.115 84.8845C215.002 83.0503 212.116 80.7672 204.609 80.7672C197.102 80.7672 194.298 83.002 191.296 84.7108C190.745 92.5642 196.971 99.0806 204.701 99.0806C212.43 99.0806 218.56 92.6511 218.115 84.8845Z" fill="#00A8E1"/>
<path d="M237.393 118.606C237.349 110.202 230.466 103.362 222.045 103.362H215.398C208.79 120.604 211.178 114.377 207.364 124.33L209.259 115.415C209.395 114.787 209.298 114.136 208.988 113.576L206.388 108.85L208.703 104.651C208.863 104.356 208.858 104.004 208.689 103.719C208.52 103.435 208.21 103.256 207.877 103.256H201.525C201.191 103.256 200.882 103.43 200.713 103.719C200.544 104.004 200.539 104.356 200.698 104.651L203.014 108.85L200.403 113.595C199.794 114.701 199.973 115.232 201.781 124.335C197.72 113.928 199.306 117.857 193.829 103.367H187.245C178.829 103.367 171.941 110.207 171.897 118.61L171.786 141.292H184.756L184.867 118.678C184.867 117.988 185.432 117.433 186.124 117.437C186.815 117.437 187.371 117.997 187.371 118.688V141.292H221.716V118.673C221.716 117.925 222.325 117.322 223.075 117.322C223.824 117.322 224.428 117.925 224.428 118.673V118.683L224.544 141.297H237.514L237.403 118.615L237.393 118.606ZM204.614 135.862C203.362 135.862 202.308 134.843 202.308 133.555C202.308 132.266 203.357 131.252 204.614 131.252C205.871 131.252 206.92 132.251 206.92 133.555C206.92 134.858 205.822 135.862 204.614 135.862Z" fill="#00A8E1"/>
<path d="M243.252 149.373H113.459V162.849H243.252C246.979 162.849 250 159.833 250 156.111C250 152.389 246.979 149.373 243.252 149.373Z" fill="#00A8E1"/>
<path d="M158.217 128.568C157.516 124.75 153.842 122.216 150.014 122.916L129.634 126.657L118.458 106.987C116.22 103.048 112.014 100.606 107.485 100.606H68.9384C59.7876 100.606 52.3046 108.035 52.2611 117.172L52.0001 168.878C51.9808 172.769 55.118 175.93 59.0142 175.95H59.048C62.9249 175.95 66.0767 172.822 66.096 168.951L66.357 117.244C66.357 116.472 66.9854 115.854 67.7589 115.854C68.5275 115.854 69.1511 116.482 69.1511 117.249C69.1511 134.834 69.1511 235.553 69.1511 235.553C69.1511 240.216 72.9361 244 77.6105 244C82.285 244 86.07 240.22 86.07 235.553V168.048H89.7197V235.553C89.7197 240.216 93.5047 244 98.1791 244C102.854 244 106.639 240.22 106.639 235.553C106.639 124.649 106.489 186.506 106.484 115.999C106.484 115.84 106.59 115.7 106.745 115.661C106.9 115.618 107.064 115.685 107.141 115.825L119.84 137.952C121.324 140.568 124.302 141.939 127.246 141.403L152.557 136.76C156.385 136.055 158.918 132.391 158.212 128.564L158.217 128.568Z" fill="#00A8E1"/>
<path d="M87.8974 66.7835C79.8294 66.7835 73.2891 73.3144 73.2891 81.3705C73.2891 89.4267 79.8343 95.9576 87.8974 95.9576C95.9604 95.9576 102.506 89.4171 102.506 81.3705C102.506 73.324 96.0136 66.7835 87.8974 66.7835Z" fill="#00A8E1"/>
<path d="M215.761 62H193.636C192.654 62 191.852 62.7964 191.852 63.7811V78.5371C194.922 76.7898 199.495 75.6796 204.604 75.6796C209.714 75.6796 214.475 76.8332 217.545 78.6433V63.7811C217.545 62.7964 216.742 62 215.761 62Z" fill="#00A8E1"/>
</g>
<defs>
<clipPath id="clip0_77_568">
<rect width="198" height="182" fill="white" transform="translate(52 62)"/>
</clipPath>
</defs>
</svg>
