<svg width="302" height="302" viewBox="0 0 302 302" fill="none" xmlns="http://www.w3.org/2000/svg">
<circle cx="151" cy="151" r="151" fill="#B8D8EB" fill-opacity="0.5"/>
<g clip-path="url(#clip0_77_634)">
<path d="M225.903 200.161H198.161V205.71H225.903V200.161Z" fill="#00A8E1"/>
<path d="M214.807 211.258H209.258V216.806H214.807V211.258Z" fill="#00A8E1"/>
<path d="M225.903 211.258H220.355V216.806H225.903V211.258Z" fill="#00A8E1"/>
<path d="M203.71 211.258H198.161V216.806H203.71V211.258Z" fill="#00A8E1"/>
<path d="M103.839 89.1936H76.0967V94.742H103.839V89.1936Z" fill="#00A8E1"/>
<path d="M103.839 100.29H98.2905V105.839H103.839V100.29Z" fill="#00A8E1"/>
<path d="M81.6451 100.29H76.0967V105.839H81.6451V100.29Z" fill="#00A8E1"/>
<path d="M92.7417 100.29H87.1934V105.839H92.7417V100.29Z" fill="#00A8E1"/>
<path d="M198.161 163.348V144.677H228.677C233.269 144.677 237 140.946 237 136.355V75.3226C237 70.7313 233.269 67 228.677 67H156.548C151.957 67 148.226 70.7313 148.226 75.3226V94.7419H114.935V78.0968H65V116.935H114.935V100.29H148.226V105.839H140.652L138.225 113.422C136.084 114.11 134.013 114.966 132.038 115.974L124.969 112.335L110.34 126.964L113.978 134.034C112.975 135.999 112.12 138.07 111.426 140.22L103.839 142.657V161.327H73.3226C68.7313 161.327 65 165.058 65 169.65V230.682C65 235.273 68.7313 239.005 73.3226 239.005H145.452C150.043 239.005 153.774 235.273 153.774 230.682V211.263H187.065V227.908H237V189.069H187.065V205.714H153.774V200.166H161.348L163.775 192.583C165.921 191.89 167.992 191.039 169.962 190.031L177.031 193.67L191.66 179.04L188.022 171.971C189.025 170.006 189.88 167.934 190.574 165.784L198.161 163.348ZM109.387 111.387H70.5484V83.6452H109.387V111.387ZM192.613 194.613H231.452V222.355H192.613V194.613ZM175.968 153C175.968 165.826 166.24 176.419 153.774 177.801V169.645C153.774 165.054 150.043 161.323 145.452 161.323H127.479C126.536 158.659 126.032 155.871 126.032 153C126.032 140.174 135.76 129.581 148.226 128.194V136.355C148.226 140.946 151.957 144.677 156.548 144.677H174.521C175.464 147.341 175.968 150.129 175.968 153ZM173.415 139.129C174.359 132.6 178.543 127.126 184.29 124.384V125.258C184.29 129.849 188.022 133.581 192.613 133.581C197.204 133.581 200.935 129.849 200.935 125.258V124.384C206.683 127.126 210.867 132.6 211.81 139.129H173.415ZM178.742 96.4203C178.742 90.9043 183.227 86.4194 188.743 86.4194H189.839V93.0266L183.342 96.2724C181.613 97.1416 180.291 98.538 179.519 100.221C179.024 99.0188 178.742 97.7381 178.742 96.4203ZM189.839 122.706C190.75 122.576 191.67 122.484 192.613 122.484C193.556 122.484 194.476 122.576 195.387 122.706V125.258C195.387 126.784 194.143 128.032 192.613 128.032C191.082 128.032 189.839 126.784 189.839 125.258V122.706ZM205.707 100.216C204.935 98.538 203.613 97.137 201.883 96.2724L195.387 93.0266V86.4194H196.483C201.999 86.4194 206.484 90.9043 206.484 96.4203C206.484 97.7381 206.206 99.0188 205.707 100.216ZM189.839 116.935C186.778 116.935 184.29 114.448 184.29 111.387V103.716C184.29 102.658 184.878 101.71 185.825 101.238L192.613 97.8444L199.4 101.238C200.344 101.71 200.935 102.662 200.935 103.716V111.387C200.935 114.448 198.448 116.935 195.387 116.935H189.839ZM153.774 75.3226C153.774 73.7968 155.018 72.5484 156.548 72.5484H228.677C230.208 72.5484 231.452 73.7968 231.452 75.3226V136.355C231.452 137.881 230.208 139.129 228.677 139.129H217.414C216.434 130.326 210.858 122.909 203.146 119.298C205.203 117.282 206.484 114.485 206.484 111.387V109.454L209.42 105.048C211.131 102.487 212.032 99.4997 212.032 96.4249C212.032 87.8481 205.055 80.871 196.483 80.871H188.748C180.171 80.871 173.194 87.8481 173.194 96.4203C173.194 99.4997 174.095 102.482 175.806 105.048L178.747 109.454V111.387C178.747 114.485 180.027 117.282 182.085 119.298C174.373 122.905 168.792 130.321 167.816 139.129H156.558C155.027 139.129 153.783 137.881 153.783 136.355V75.3226H153.774ZM109.387 146.703L115.925 144.608L116.332 143.175C117.109 140.433 118.186 137.825 119.527 135.416L120.257 134.117L117.122 128.028L126.032 119.118L132.117 122.248L133.421 121.522C135.834 120.172 138.447 119.095 141.179 118.323L142.613 117.916L144.703 111.382H148.23V122.623C132.7 124.028 120.488 137.108 120.488 152.995C120.488 155.844 120.909 158.627 121.668 161.318H109.392V146.698L109.387 146.703ZM92.7419 208.484V194.613C92.7419 186.383 98.7527 179.544 106.613 178.217V184.575L100.117 187.821C97.2824 189.24 95.5161 192.088 95.5161 195.265V202.935C95.5161 206.033 96.7969 208.831 98.8544 210.847C97.3009 211.572 95.8352 212.456 94.4758 213.473C93.3708 212.044 92.7419 210.31 92.7419 208.484ZM106.613 208.484C103.552 208.484 101.065 205.996 101.065 202.935V195.265C101.065 194.206 101.652 193.258 102.6 192.787L109.387 189.393L116.175 192.787C117.118 193.258 117.71 194.211 117.71 195.265V202.935C117.71 205.996 115.222 208.484 112.161 208.484H106.613ZM109.387 214.032C111.611 214.032 113.738 214.425 115.731 215.119L113.747 219.581H105.022L103.039 215.119C105.032 214.425 107.158 214.032 109.382 214.032H109.387ZM111.283 225.129L109.387 229.392L107.491 225.129H111.283ZM120.669 217.676C125.588 221.204 128.811 226.951 128.811 233.452H113.659L120.669 217.676ZM126.037 208.484C126.037 210.31 125.408 212.044 124.303 213.473C122.944 212.456 121.478 211.572 119.924 210.847C121.982 208.831 123.263 206.038 123.263 202.935V195.265C123.263 192.093 121.496 189.245 118.662 187.821L112.166 184.575V178.217C120.026 179.544 126.037 186.378 126.037 194.613V208.484ZM98.11 217.676L105.119 233.452H89.9677C89.9677 226.951 93.1858 221.204 98.1054 217.676H98.11ZM148.23 230.677C148.23 232.203 146.987 233.452 145.456 233.452H134.359C134.359 227.284 132.103 221.643 128.381 217.283C130.439 214.818 131.585 211.739 131.585 208.484V194.613C131.585 182.379 121.626 172.419 109.392 172.419C97.1575 172.419 87.1982 182.374 87.1982 194.613V208.484C87.1982 211.739 88.3448 214.818 90.4024 217.283C86.6803 221.643 84.424 227.284 84.424 233.452H73.3226C71.7922 233.452 70.5484 232.203 70.5484 230.677V169.645C70.5484 168.119 71.7922 166.871 73.3226 166.871H145.452C146.982 166.871 148.226 168.119 148.226 169.645V230.677H148.23ZM186.08 161.392L185.673 162.83C184.896 165.572 183.819 168.179 182.478 170.584L181.747 171.883L184.882 177.972L175.972 186.882L169.883 183.747L168.584 184.473C166.175 185.819 163.567 186.901 160.825 187.673L159.392 188.08L157.302 194.618H153.774V183.382C169.305 181.976 181.516 168.896 181.516 153.009C181.516 150.161 181.095 147.378 180.332 144.687H192.613V159.307L186.075 161.397L186.08 161.392Z" fill="#00A8E1"/>
<path d="M81.6451 172.419H76.0967V177.968H81.6451V172.419Z" fill="#00A8E1"/>
<path d="M142.677 172.419H137.129V177.968H142.677V172.419Z" fill="#00A8E1"/>
<path d="M164.871 78.0968H159.323V83.6452H164.871V78.0968Z" fill="#00A8E1"/>
<path d="M225.903 78.0968H220.355V83.6452H225.903V78.0968Z" fill="#00A8E1"/>
</g>
<defs>
<clipPath id="clip0_77_634">
<rect width="172" height="172" fill="white" transform="translate(65 67)"/>
</clipPath>
</defs>
</svg>
