<svg width="65" height="65" viewBox="0 0 65 65" fill="none" xmlns="http://www.w3.org/2000/svg">
<path d="M32.28 64.57C14.48 64.57 0 50.08 0 32.28C0 14.48 14.48 0 32.28 0C50.08 0 64.56 14.48 64.56 32.28C64.56 50.08 50.08 64.56 32.28 64.56V64.57ZM43.17 19.19C41.85 19.19 40.78 20.26 40.78 21.58C40.78 22.9 41.85 23.97 43.17 23.97C44.49 23.97 45.56 22.9 45.56 21.58C45.56 20.26 44.49 19.19 43.17 19.19ZM32.55 22.25C27.02 22.25 22.51 26.75 22.51 32.28C22.51 37.81 27.01 42.31 32.55 42.31C38.09 42.31 42.58 37.81 42.58 32.28C42.58 26.75 38.08 22.25 32.55 22.25ZM32.55 38.71C29.01 38.71 26.12 35.83 26.12 32.28C26.12 28.73 29 25.85 32.55 25.85C36.1 25.85 38.98 28.73 38.98 32.28C38.98 35.83 36.1 38.71 32.55 38.71ZM52.8 23.94C52.8 17.18 47.32 11.7 40.56 11.7H24.4C17.64 11.7 12.16 17.18 12.16 23.94V40.1C12.16 46.86 17.64 52.34 24.4 52.34H40.55C47.31 52.34 52.79 46.86 52.79 40.1V23.94H52.8ZM48.97 40.1C48.97 44.74 45.21 48.51 40.56 48.51H24.4C19.76 48.51 15.99 44.75 15.99 40.1V23.94C15.99 19.3 19.75 15.53 24.4 15.53H40.55C45.19 15.53 48.96 19.29 48.96 23.94V40.1H48.97Z" fill="#00A8E1"/>
</svg>
