<svg width="65" height="65" viewBox="0 0 65 65" fill="none" xmlns="http://www.w3.org/2000/svg">
<path d="M32.28 0C14.46 0 0 14.46 0 32.28C0 50.1 14.46 64.56 32.28 64.56C50.1 64.56 64.56 50.1 64.56 32.28C64.56 14.46 50.11 0 32.28 0ZM22.9 48.8H15.04V25.15H22.9V48.8ZM18.97 21.92H18.92C16.28 21.92 14.58 20.1 14.58 17.83C14.58 15.56 16.34 13.74 19.03 13.74C21.72 13.74 23.37 15.51 23.43 17.83C23.43 20.1 21.72 21.92 18.98 21.92H18.97ZM51.25 48.8H43.39V36.15C43.39 32.97 42.25 30.8 39.41 30.8C37.24 30.8 35.94 32.26 35.38 33.68C35.17 34.19 35.12 34.89 35.12 35.6V48.81H27.26C27.26 48.81 27.36 27.37 27.26 25.16H35.12V28.51C36.16 26.9 38.03 24.61 42.21 24.61C47.38 24.61 51.26 27.99 51.26 35.26V48.82L51.25 48.8Z" fill="#00A8E1"/>
</svg>
