<?xml version="1.0" encoding="utf-8"?>
<!-- Generator: Adobe Illustrator 26.5.0, SVG Export Plug-In . SVG Version: 6.00 Build 0)  -->
<svg version="1.1" id="Layer_1" xmlns="http://www.w3.org/2000/svg" xmlns:xlink="http://www.w3.org/1999/xlink" x="0px" y="0px"
	 viewBox="0 0 841.89 595.28" style="enable-background:new 0 0 841.89 595.28;" xml:space="preserve">
<style type="text/css">
	.st0{fill:#313D49;}
	.st1{fill:#74A555;}
	.st2{fill:#FFFFFF;}
</style>
<g>
	<g>
		<path class="st0" d="M108.73,399.16l21.73-50.69h12.76v62.47h-8.1v-55.08l-23.85,55.44h-5.9l-23.67-55.08v54.73H73.8v-62.47H87
			L108.73,399.16z"/>
		<path class="st0" d="M162.67,348.47h8.53v62.47h-8.53V348.47z"/>
		<path class="st0" d="M225.57,399.16l21.73-50.69h12.76v62.47h-8.1v-55.08l-23.84,55.44h-5.9l-23.67-55.08v54.73h-7.92v-62.47h13.2
			L225.57,399.16z"/>
		<path class="st0" d="M275.81,379.71c0-18.3,13.81-32.29,32.29-32.29c18.39,0,32.29,13.99,32.29,32.29
			c0,18.3-13.9,32.29-32.29,32.29C289.45,412,275.81,398.1,275.81,379.71z M331.6,379.71c0-13.29-9.41-24.37-23.49-24.37
			c-14.08,0-23.49,11-23.49,24.37c0,13.64,9.42,24.37,23.49,24.37C322.18,404.08,331.6,393.08,331.6,379.71z"/>
		<path class="st0" d="M361.77,364.49c0,5.19,4.22,8,11.96,8.97l12.23,1.41c10.56,1.14,20.5,5.63,20.5,18.56
			c0,10.12-8.18,18.65-25.43,18.65c-19.36,0-27.19-9.85-30-19h9.15c2.11,4.75,7.48,11.17,20.85,11.17c10.91,0,16.89-4.4,16.89-10.38
			c0-7.39-5.19-9.59-12.67-10.56L372.95,382c-11.26-1.14-19.71-6.69-19.71-17.51c0-10.21,9.33-17.07,23.67-17.07
			c18.74,0,25.96,9.15,28.07,16.98h-8.89c-2.11-4.22-7.22-9.15-19.18-9.15C366.79,355.25,361.77,358.86,361.77,364.49z"/>
		<path class="st0" d="M463.75,395.9h-33.26l-6.95,15.04h-8.45l28.86-62.82h6.77l28.95,62.82h-8.97L463.75,395.9z M460.23,388.16
			l-13.11-28.51l-13.11,28.51H460.23z"/>
		<path class="st0" d="M515.57,348.47h32.47c13.81,0,21.02,6.51,21.02,18.04c0,11-7.21,18.39-21.02,18.39h-23.93v26.04h-8.54V348.47
			z M524.11,356.39v20.59h24.2c8.1,0,11.97-4.31,11.97-10.29c0-6.6-3.87-10.3-11.97-10.3H524.11z"/>
		<path class="st0" d="M632.95,410.94h-48.92v-62.47h8.53v54.46h40.39V410.94z"/>
		<path class="st0" d="M690.22,383.85v-35.37h8.45v36.08c0,15.13-9.59,27.45-27.54,27.45c-18.74,0-27.63-12.23-27.63-27.45v-36.08
			h8.53v35.37c0,11.88,6.78,19.97,19.09,19.97C683.27,403.82,690.22,395.72,690.22,383.85z"/>
		<path class="st0" d="M723.39,364.49c0,5.19,4.22,8,11.96,8.97l12.23,1.41c10.56,1.14,20.5,5.63,20.5,18.56
			c0,10.12-8.18,18.65-25.43,18.65c-19.36,0-27.19-9.85-30-19h9.15c2.11,4.75,7.48,11.17,20.85,11.17c10.91,0,16.9-4.4,16.9-10.38
			c0-7.39-5.19-9.59-12.67-10.56L734.57,382c-11.26-1.14-19.71-6.69-19.71-17.51c0-10.21,9.33-17.07,23.67-17.07
			c18.74,0,25.96,9.15,28.07,16.98h-8.89c-2.11-4.22-7.22-9.15-19.18-9.15C728.4,355.25,723.39,358.86,723.39,364.49z"/>
	</g>
	<g>
		<path class="st0" d="M263.3,487.23c-8.55,0-14.28-5.72-14.28-13.87c0-7.95,5.73-13.79,13.57-13.79c7.42,0,10.67,4.18,11.69,6.9
			h-3.81c-0.91-1.2-3.24-3.5-7.88-3.5c-6.07,0-9.8,4.56-9.8,10.4c0,6.29,4.26,10.47,10.52,10.47c4.07,0,6.82-1.13,8.22-2.18v-6.6
			h-10.56v-3.27h14.03v11.3C272.99,485.08,269.26,487.23,263.3,487.23z"/>
		<path class="st0" d="M284.72,473.4c0-7.84,5.92-13.83,13.83-13.83c7.87,0,13.84,5.99,13.84,13.83c0,7.84-5.97,13.83-13.84,13.83
			C290.56,487.23,284.72,481.27,284.72,473.4z M308.61,473.4c0-5.69-4.03-10.44-10.06-10.44c-6.03,0-10.06,4.71-10.06,10.44
			c0,5.84,4.03,10.44,10.06,10.44C304.58,483.83,308.61,479.13,308.61,473.4z"/>
		<path class="st0" d="M343.87,486.78h-20.96v-26.76h3.65v23.33h17.31V486.78z"/>
		<path class="st0" d="M353.22,460.02h21.71v3.43h-18.05v7.41h10.51v3.44h-10.51v12.47h-3.66V460.02z"/>
		<path class="st0" d="M396.5,473.4c0-7.73,5.62-13.83,13.23-13.83c7.84,0,11.42,5.09,12.32,8.3h-3.8c-0.9-1.93-3.7-4.87-8.52-4.87
			c-5.73,0-9.42,4.79-9.42,10.4c0,5.62,3.7,10.4,9.42,10.4c5.43,0,7.69-3.2,8.6-4.9h3.72c-0.79,3.01-4.14,8.33-12.32,8.33
			C402.08,487.23,396.5,481.12,396.5,473.4z"/>
		<path class="st0" d="M430.58,473.4c0-7.84,5.92-13.83,13.83-13.83c7.88,0,13.83,5.99,13.83,13.83c0,7.84-5.95,13.83-13.83,13.83
			C436.42,487.23,430.58,481.27,430.58,473.4z M454.47,473.4c0-5.69-4.04-10.44-10.06-10.44c-6.03,0-10.06,4.71-10.06,10.44
			c0,5.84,4.03,10.44,10.06,10.44C450.44,483.83,454.47,479.13,454.47,473.4z"/>
		<path class="st0" d="M488.67,475.17v-15.15h3.61v15.45c0,6.48-4.09,11.76-11.79,11.76c-8.03,0-11.84-5.24-11.84-11.76v-15.45h3.66
			v15.15c0,5.09,2.9,8.55,8.18,8.55C485.7,483.72,488.67,480.26,488.67,475.17z"/>
		<path class="st0" d="M504.24,460.02h14.21c5.76,0,8.82,2.57,8.82,7.58c0,3.58-1.88,5.99-5.46,6.9l6.48,12.29h-3.88L518,474.87
			h-10.1v11.91h-3.66V460.02z M507.9,463.41v8.1h10.44c3.47,0,5.17-1.2,5.17-3.92c0-2.9-1.7-4.18-5.17-4.18H507.9z"/>
		<path class="st0" d="M540.7,466.88c0,2.23,1.81,3.43,5.13,3.85l5.24,0.6c4.52,0.49,8.78,2.41,8.78,7.95
			c0,4.33-3.51,7.99-10.9,7.99c-8.29,0-11.65-4.22-12.86-8.14h3.93c0.91,2.04,3.2,4.78,8.93,4.78c4.67,0,7.23-1.88,7.23-4.45
			c0-3.16-2.23-4.11-5.42-4.52l-5.28-0.56c-4.82-0.49-8.43-2.87-8.43-7.5c0-4.37,3.98-7.31,10.13-7.31c8.03,0,11.12,3.92,12.02,7.28
			h-3.81c-0.91-1.82-3.09-3.92-8.22-3.92C542.84,462.93,540.7,464.47,540.7,466.88z"/>
		<path class="st0" d="M570.42,460.02h20.94v3.39h-17.34v7.45h10.36v3.4h-10.36v9.11h18.85v3.39h-22.45V460.02z"/>
	</g>
	<g>
		<path class="st1" d="M380.1,109.17l0.01,0.01c2.35-1.43,5.38-1.61,7.97-0.19l20.96,11.54l-0.01,0.02c1.5,0.94,2.37,2.52,2.45,4.18
			l0,0v0.1c0,0.11,0.01,0.22,0,0.33v4.4l0,0l0,117.62l-6.27-0.01V141.88v-0.01c0.02-1.51-0.78-2.98-2.19-3.76
			c-0.28-0.15-0.57-0.27-0.86-0.35l0,0l-31.28-6.2l0,0c-0.51-0.1-1.02-0.28-1.51-0.55c-2.23-1.23-3.2-3.84-2.45-6.18
			c0,0,1.09-2.63,1.8-3.9C371.5,115.88,375.48,111.92,380.1,109.17z"/>
		<path class="st1" d="M462.15,109.17l-0.01,0.01c-2.34-1.43-5.38-1.61-7.96-0.19l-20.96,11.54v0.02c-1.49,0.94-2.36,2.52-2.44,4.18
			h0v0.1c0,0.11,0,0.22,0,0.33v4.4l0,0l0,117.62l6.27-0.01V141.88l0-0.01c-0.01-1.51,0.78-2.98,2.19-3.76
			c0.28-0.15,0.56-0.27,0.86-0.35l0,0l31.27-6.2l0,0c0.51-0.1,1.02-0.28,1.51-0.55c2.23-1.23,3.21-3.84,2.46-6.18
			c0,0-1.1-2.63-1.8-3.9C470.76,115.88,466.78,111.92,462.15,109.17z"/>
		<path class="st1" d="M354.52,136.75l0.01,0.01c2.35-1.44,5.38-1.61,7.97-0.19l20.96,11.54l-0.01,0.01
			c1.49,0.94,2.36,2.53,2.44,4.18h0v0.1c0,0.11,0.01,0.22,0,0.34v4.4l0,0l0,66.61h-6.27v-54.3h0c0.02-1.51-0.77-2.97-2.19-3.76
			c-0.28-0.15-0.56-0.27-0.86-0.35l0,0l-31.27-6.2l0,0c-0.52-0.11-1.03-0.28-1.51-0.55c-2.23-1.23-3.2-3.85-2.45-6.18
			c0,0,1.1-2.63,1.8-3.9C345.92,143.45,349.9,139.49,354.52,136.75z"/>
		<path class="st1" d="M487.74,136.75l-0.01,0.01c-2.35-1.44-5.38-1.61-7.97-0.19l-20.96,11.54l0,0.01
			c-1.49,0.94-2.36,2.53-2.44,4.18h-0.01v0.1c0,0.11,0,0.22,0.01,0.34v4.4l0,0v66.61h6.27v-54.3l0,0c-0.01-1.51,0.78-2.97,2.2-3.76
			c0.28-0.15,0.57-0.27,0.86-0.35l0,0l31.27-6.2h0c0.52-0.11,1.02-0.28,1.51-0.55c2.23-1.23,3.2-3.85,2.45-6.18
			c0,0-1.09-2.63-1.8-3.9C496.34,143.45,492.36,139.49,487.74,136.75z"/>
	</g>
</g>
</svg>
