<svg width="302" height="302" viewBox="0 0 302 302" fill="none" xmlns="http://www.w3.org/2000/svg">
<circle cx="151" cy="151" r="151" fill="#B8D8EB" fill-opacity="0.5"/>
<path d="M249.31 79.3949C249.31 78.1138 248.648 77.073 247.826 77.073H229.261C228.445 77.073 227.777 78.1138 227.777 79.3949C227.777 80.6759 228.439 81.7168 229.261 81.7168H247.826C248.642 81.7168 249.31 80.6759 249.31 79.3949Z" fill="#00A8E1"/>
<path d="M197 119.732C197 123.127 199.76 125.881 203.149 125.881H216.931C220.326 125.881 223.085 123.121 223.085 119.732V106.014L225.242 103.858C226.149 102.95 226.149 101.482 225.242 100.575C224.334 99.6674 222.866 99.6674 221.959 100.575L221.094 101.434C220 100.425 218.538 99.7955 216.931 99.7955H203.149C199.754 99.7955 197 102.555 197 105.95V119.732ZM201.644 105.95C201.644 105.117 202.322 104.439 203.149 104.439H216.931C217.257 104.439 217.561 104.546 217.806 104.722L210.67 111.859L209.026 110.215C208.118 109.307 206.651 109.307 205.743 110.215C204.836 111.122 204.836 112.59 205.743 113.497L209.031 116.785C209.485 117.239 210.077 117.463 210.675 117.463C211.273 117.463 211.865 117.239 212.314 116.785L218.447 110.652V119.726C218.447 120.559 217.769 121.232 216.942 121.232H203.16C202.327 121.232 201.654 120.554 201.654 119.726V105.945L201.644 105.95Z" fill="#00A8E1"/>
<path d="M229.405 110.519C228.508 110.519 227.782 111.56 227.782 112.841C227.782 114.122 228.508 115.163 229.405 115.163H236.824C237.721 115.163 238.447 114.122 238.447 112.841C238.447 111.56 237.721 110.519 236.824 110.519H229.405Z" fill="#00A8E1"/>
<path d="M197 153.178C197 156.573 199.76 159.332 203.149 159.332H216.931C220.326 159.332 223.085 156.573 223.085 153.178V139.396C223.085 136.007 220.326 133.247 216.931 133.247H203.149C199.754 133.247 197 136.007 197 139.396V153.178ZM201.644 139.396C201.644 138.563 202.322 137.891 203.149 137.891H216.931C217.764 137.891 218.442 138.569 218.442 139.396V153.178C218.442 154.011 217.764 154.688 216.931 154.688H203.149C202.316 154.688 201.644 154.011 201.644 153.178V139.396Z" fill="#00A8E1"/>
<path d="M253.869 115.217L259.146 93.5604C259.531 92.1623 259.285 90.0653 258.368 88.6086C257.592 87.3536 256.142 86.0995 254.29 85.6599C250.847 84.7318 246.785 87.2299 246.198 91.0527L243.138 103.618L234.59 138.712C234.049 140.654 233.89 142.702 234.515 145.005L236.653 152.42C236.946 153.002 237.77 154.26 239.249 153.039L244.563 147.405C245.913 146.03 247.002 143.819 247.401 141.771L252.848 119.415L253.873 115.217L253.869 115.217ZM256.159 92.8473L254.647 99.0505L247.81 97.4175L249.322 91.2143C249.72 89.5652 251.53 88.1524 253.567 88.6335C255.104 89.0027 256.687 90.7331 256.159 92.8473ZM244.778 139.578L237.941 137.945L247.09 100.391L253.927 102.024L244.778 139.582L244.778 139.578ZM245.181 95.2536L244.166 99.4221L245.181 95.2536ZM237.475 144.162C237.433 143.895 236.995 142.767 237.254 140.924L244.013 142.537C243.711 144.249 240.104 147.62 238.863 148.992L237.472 144.163L237.475 144.162Z" fill="#00A8E1"/>
<path d="M225.242 66.942C224.334 66.0346 222.866 66.0346 221.959 66.942L220.998 67.8975C219.915 66.9367 218.49 66.3495 216.931 66.3495H203.149C199.754 66.3495 197 69.1091 197 72.4986V86.2805C197 89.6753 199.76 92.4349 203.149 92.4349H216.931C220.326 92.4349 223.085 89.6753 223.085 86.2805V72.5039C223.085 72.4665 223.085 72.4292 223.08 72.3918L225.242 70.2301C226.149 69.3226 226.149 67.8548 225.242 66.9474V66.942ZM218.442 86.2859C218.442 87.1185 217.764 87.7964 216.931 87.7964H203.149C202.316 87.7964 201.644 87.1185 201.644 86.2859V72.5039C201.644 71.6712 202.322 70.9987 203.149 70.9987H216.931C217.209 70.9987 217.47 71.0787 217.689 71.2122L210.665 78.2366L209.02 76.5926C208.113 75.6852 206.645 75.6852 205.738 76.5926C204.83 77.5 204.83 78.9679 205.738 79.8753L209.026 83.1633C209.48 83.617 210.072 83.8412 210.67 83.8412C211.268 83.8412 211.86 83.617 212.309 83.1633L218.442 77.0303V86.2912V86.2859Z" fill="#00A8E1"/>
<path d="M242.107 209.904H239.684V200.462C247.332 194.222 251.128 187.422 250.962 180.232C250.679 168.014 238.904 159.661 238.403 159.308C237.372 158.588 236.001 158.588 234.965 159.308C234.463 159.661 222.688 168.014 222.4 180.232C222.235 187.422 226.03 194.222 233.679 200.462V209.904H221.146V193.502C221.146 191.842 219.801 190.502 218.146 190.502H190.257V103.689C190.257 102.029 188.911 100.69 187.257 100.69C185.602 100.69 184.257 102.035 184.257 103.689V209.899H162.308V199.848H164.31C165.965 199.848 167.31 198.503 167.31 196.848V193.299C167.31 186.376 161.678 180.744 154.755 180.744H142.239C135.316 180.744 129.684 186.376 129.684 193.299V196.848C129.684 198.508 131.029 199.848 132.684 199.848H133.885V209.899H112.732V71.9996H184.257V91.1833C184.257 92.8433 185.602 94.183 187.257 94.183C188.911 94.183 190.257 92.8379 190.257 91.1833V68.9998C190.257 67.3398 188.911 66 187.257 66H109.721C108.067 66 106.722 67.3451 106.722 68.9998V101.624H90.0412C88.3865 101.624 87.0414 102.969 87.0414 104.624V113.452H82.0347C80.38 113.452 79.0349 114.797 79.0349 116.452V154.43C79.0349 156.084 80.38 157.429 82.0347 157.429C83.6893 157.429 85.0344 156.084 85.0344 154.43V119.462H106.716V133.255H95.2401C93.5854 133.255 92.2403 134.6 92.2403 136.255C92.2403 137.909 93.5854 139.255 95.2401 139.255H106.716V150.063H95.2401C93.5854 150.063 92.2403 151.409 92.2403 153.063C92.2403 154.718 93.5854 156.063 95.2401 156.063H106.716V166.872H95.2401C93.5854 166.872 92.2403 168.217 92.2403 169.872C92.2403 171.526 93.5854 172.871 95.2401 172.871H106.716V183.68H95.2401C93.5854 183.68 92.2403 185.025 92.2403 186.68C92.2403 188.335 93.5854 189.68 95.2401 189.68H106.716V209.888H85.0344V166.925C85.0344 165.271 83.6893 163.925 82.0347 163.925C80.38 163.925 79.0349 165.271 79.0349 166.925V209.888H63.294V200.446C70.9429 194.206 74.738 187.406 74.5725 180.216C74.2896 167.998 62.5147 159.639 62.0076 159.292C60.9774 158.572 59.6056 158.572 58.5701 159.292C58.0684 159.639 46.2934 167.998 46.0052 180.216C45.8397 187.406 49.6348 194.206 57.2837 200.446V209.888H54.8604C53.2004 209.888 51.8606 211.233 51.8606 212.888V226.142C51.8606 227.802 53.2057 229.141 54.8604 229.141H139.607C141.267 229.141 142.607 227.796 142.607 226.142C142.607 224.487 141.262 223.142 139.607 223.142H57.8656V215.893H239.102V223.142H152.556C150.896 223.142 149.557 224.487 149.557 226.142C149.557 227.796 150.902 229.141 152.556 229.141H242.107C243.767 229.141 245.107 227.796 245.107 226.142V212.888C245.107 211.228 243.762 209.888 242.107 209.888V209.904ZM60.2835 177.392C58.6235 177.392 57.2837 178.738 57.2837 180.392V192.274C53.6968 188.388 51.9247 184.411 52.0101 180.403C52.1542 173.645 57.4706 168.099 60.2942 165.623C63.1125 168.083 68.4075 173.592 68.5676 180.376C68.6584 184.395 66.8863 188.383 63.294 192.274V180.392C63.294 178.732 61.9489 177.392 60.2942 177.392H60.2835ZM106.716 113.457H93.041V107.634H106.716V113.457ZM156.293 209.904H139.879V199.853H156.293V209.904ZM161.299 193.849H135.679V193.304C135.679 189.69 138.614 186.755 142.228 186.755H154.745C158.358 186.755 161.294 189.696 161.294 193.304V193.849H161.299ZM215.146 209.904H190.257V196.501H215.146V209.904ZM236.689 177.392C235.029 177.392 233.689 178.738 233.689 180.392V192.274C230.102 188.388 228.33 184.411 228.416 180.403C228.56 173.645 233.876 168.099 236.7 165.623C239.518 168.083 244.813 173.592 244.973 180.376C245.069 184.395 243.292 188.377 239.7 192.274V180.392C239.7 178.732 238.354 177.392 236.7 177.392H236.689Z" fill="#00A8E1"/>
<path d="M174.505 164.182H123.263C121.603 164.182 120.264 165.527 120.264 167.181C120.264 168.836 121.609 170.181 123.263 170.181H174.505C176.16 170.181 177.51 168.841 177.51 167.181C177.51 165.521 176.165 164.182 174.505 164.182Z" fill="#00A8E1"/>
<path d="M174.505 144.203H123.263C121.603 144.203 120.264 145.542 120.264 147.202C120.264 148.862 121.609 150.202 123.263 150.202H174.505C176.16 150.202 177.51 148.857 177.51 147.202C177.51 145.548 176.165 144.203 174.505 144.203Z" fill="#00A8E1"/>
<path d="M174.505 124.224H123.263C121.603 124.224 120.264 125.569 120.264 127.223C120.264 128.878 121.609 130.223 123.263 130.223H174.505C176.16 130.223 177.51 128.878 177.51 127.223C177.51 125.569 176.165 124.224 174.505 124.224Z" fill="#00A8E1"/>
<path d="M174.505 104.245H123.263C121.603 104.245 120.264 105.59 120.264 107.244C120.264 108.899 121.609 110.244 123.263 110.244H174.505C176.16 110.244 177.51 108.899 177.51 107.244C177.51 105.59 176.165 104.245 174.505 104.245Z" fill="#00A8E1"/>
<path d="M174.505 84.2656H123.263C121.603 84.2656 120.264 85.6107 120.264 87.2654C120.264 88.9201 121.609 90.2652 123.263 90.2652H174.505C176.16 90.2652 177.51 88.9201 177.51 87.2654C177.51 85.6107 176.165 84.2656 174.505 84.2656Z" fill="#00A8E1"/>
</svg>
