<?xml version="1.0" encoding="utf-8"?>
<!-- Generator: Adobe Illustrator 26.5.0, SVG Export Plug-In . SVG Version: 6.00 Build 0)  -->
<svg version="1.1" id="Layer_1" xmlns="http://www.w3.org/2000/svg" xmlns:xlink="http://www.w3.org/1999/xlink" x="0px" y="0px"
	 viewBox="0 0 841.89 595.28" style="enable-background:new 0 0 841.89 595.28;" xml:space="preserve">
<style type="text/css">
	.st0{fill:#FDB515;}
	.st1{fill:#6F2789;}
</style>
<g>
	<g>
		<path class="st0" d="M104.71,402.12h7.87v13.32h15.28v-13.32h7.87v35.71h-7.87V422.4h-15.28v15.43h-7.87V402.12z"/>
		<path class="st0" d="M150.86,419.98c0-2.86,0.48-5.45,1.44-7.77c0.96-2.32,2.3-4.29,4.01-5.93c1.72-1.63,3.75-2.88,6.1-3.76
			c2.35-0.87,4.93-1.31,7.72-1.31c2.79,0,5.36,0.44,7.72,1.31c2.35,0.87,4.39,2.13,6.1,3.76c1.72,1.63,3.05,3.61,4.01,5.93
			s1.44,4.91,1.44,7.77s-0.48,5.45-1.44,7.77c-0.96,2.32-2.3,4.3-4.01,5.93c-1.72,1.63-3.75,2.88-6.1,3.76
			c-2.35,0.87-4.93,1.31-7.72,1.31c-2.79,0-5.36-0.44-7.72-1.31c-2.35-0.87-4.39-2.13-6.1-3.76c-1.71-1.63-3.05-3.61-4.01-5.93
			C151.34,425.43,150.86,422.84,150.86,419.98z M159.03,419.98c0,1.68,0.26,3.22,0.78,4.62c0.52,1.4,1.27,2.61,2.24,3.63
			s2.14,1.82,3.51,2.4c1.36,0.57,2.88,0.86,4.56,0.86s3.2-0.29,4.57-0.86c1.36-0.57,2.53-1.37,3.51-2.4s1.72-2.24,2.25-3.63
			c0.52-1.4,0.78-2.93,0.78-4.62c0-1.65-0.26-3.18-0.78-4.59c-0.52-1.41-1.27-2.63-2.25-3.66c-0.98-1.02-2.14-1.82-3.51-2.4
			c-1.36-0.57-2.88-0.86-4.57-0.86s-3.2,0.29-4.56,0.86c-1.36,0.57-2.53,1.37-3.51,2.4c-0.98,1.03-1.72,2.24-2.24,3.66
			C159.29,416.8,159.03,418.33,159.03,419.98z"/>
		<path class="st0" d="M210.63,409.09h-10.19v-6.96h28.25v6.96H218.5v28.75h-7.87V409.09z"/>
		<path class="st0" d="M242.26,402.12h24.26v7.26h-16.39v6.66h15.48v7.26h-15.48v7.26h17.3v7.26h-25.17V402.12z"/>
		<path class="st0" d="M283.57,402.12h7.87v28.45h14.58v7.26h-22.45V402.12z"/>
		<path class="st0" d="M338.65,410.85c-0.64-0.81-1.51-1.4-2.6-1.79c-1.09-0.39-2.13-0.58-3.1-0.58c-0.57,0-1.16,0.07-1.77,0.2
			s-1.18,0.34-1.72,0.63c-0.54,0.29-0.98,0.66-1.31,1.14c-0.34,0.47-0.51,1.04-0.51,1.72c0,1.08,0.4,1.9,1.21,2.47
			c0.81,0.57,1.82,1.06,3.05,1.46c1.23,0.4,2.55,0.81,3.96,1.21c1.41,0.4,2.73,0.98,3.96,1.72c1.23,0.74,2.24,1.73,3.05,2.98
			c0.81,1.24,1.21,2.91,1.21,4.99c0,1.98-0.37,3.72-1.11,5.2c-0.74,1.48-1.74,2.71-3,3.68c-1.26,0.98-2.72,1.7-4.39,2.17
			c-1.66,0.47-3.42,0.71-5.27,0.71c-2.32,0-4.47-0.35-6.46-1.06c-1.98-0.71-3.83-1.85-5.55-3.43l5.6-6.15
			c0.81,1.08,1.82,1.91,3.05,2.5c1.23,0.59,2.5,0.88,3.81,0.88c0.64,0,1.29-0.08,1.94-0.23c0.66-0.15,1.24-0.38,1.77-0.68
			c0.52-0.3,0.94-0.69,1.26-1.16c0.32-0.47,0.48-1.03,0.48-1.67c0-1.08-0.41-1.92-1.24-2.55c-0.82-0.62-1.86-1.15-3.1-1.59
			c-1.24-0.44-2.59-0.87-4.04-1.31c-1.45-0.44-2.79-1.02-4.04-1.77c-1.24-0.74-2.28-1.72-3.1-2.93c-0.82-1.21-1.24-2.81-1.24-4.79
			c0-1.92,0.38-3.6,1.13-5.04c0.76-1.45,1.77-2.66,3.03-3.63c1.26-0.97,2.72-1.71,4.36-2.19c1.65-0.49,3.35-0.73,5.09-0.73
			c2.02,0,3.97,0.29,5.85,0.86c1.88,0.57,3.58,1.53,5.09,2.88L338.65,410.85z"/>
		<path class="st0" d="M411.44,429.41l7.97,8.42h-9.74l-2.98-3.38c-1.48,1.51-3.07,2.61-4.77,3.28c-1.7,0.67-3.61,1.01-5.72,1.01
			c-1.62,0-3.18-0.22-4.69-0.65c-1.51-0.44-2.87-1.1-4.06-1.99c-1.19-0.89-2.14-2.01-2.85-3.35c-0.71-1.35-1.06-2.91-1.06-4.69
			c0-1.14,0.19-2.23,0.58-3.25s0.92-1.96,1.61-2.8c0.69-0.84,1.49-1.57,2.4-2.19c0.91-0.62,1.9-1.12,2.98-1.49
			c-0.57-0.64-1.1-1.24-1.59-1.82c-0.49-0.57-0.91-1.18-1.26-1.82c-0.35-0.64-0.62-1.31-0.81-2.02c-0.18-0.71-0.28-1.5-0.28-2.37
			c0-1.61,0.31-2.99,0.93-4.14c0.62-1.14,1.45-2.08,2.5-2.83c1.04-0.74,2.24-1.28,3.58-1.61c1.34-0.34,2.72-0.5,4.14-0.5
			c1.38,0,2.69,0.18,3.94,0.53c1.24,0.35,2.34,0.89,3.3,1.61c0.96,0.72,1.72,1.63,2.3,2.72c0.57,1.09,0.86,2.4,0.86,3.91
			c0,1.08-0.18,2.07-0.53,2.98c-0.35,0.91-0.83,1.76-1.44,2.55c-0.61,0.79-1.3,1.5-2.09,2.12c-0.79,0.62-1.64,1.17-2.55,1.64
			l4.59,4.89l3.48-4.74h8.78L411.44,429.41z M395.8,422.6c-0.51,0.3-1,0.61-1.49,0.93c-0.49,0.32-0.92,0.67-1.31,1.06
			s-0.7,0.83-0.93,1.34c-0.24,0.51-0.35,1.09-0.35,1.77c0,0.67,0.13,1.28,0.4,1.82c0.27,0.54,0.62,0.99,1.06,1.36
			c0.44,0.37,0.95,0.66,1.54,0.88c0.59,0.22,1.19,0.33,1.79,0.33c1.18,0,2.19-0.25,3.05-0.76c0.86-0.51,1.71-1.13,2.55-1.87
			L395.8,422.6z M398.22,407.27c-0.98,0-1.8,0.3-2.47,0.91c-0.67,0.61-1.01,1.41-1.01,2.42c0,0.44,0.1,0.87,0.3,1.29
			c0.2,0.42,0.45,0.82,0.73,1.21c0.29,0.39,0.61,0.75,0.96,1.08c0.35,0.34,0.68,0.64,0.98,0.91c0.4-0.24,0.84-0.51,1.31-0.83
			c0.47-0.32,0.91-0.67,1.31-1.06c0.4-0.39,0.74-0.81,1.01-1.26c0.27-0.45,0.4-0.93,0.4-1.44c0-1.04-0.35-1.84-1.03-2.4
			C400.03,407.55,399.2,407.27,398.22,407.27z"/>
		<path class="st0" d="M458.45,402.12h13.82c1.82,0,3.54,0.18,5.17,0.53c1.63,0.35,3.06,0.94,4.29,1.77
			c1.23,0.82,2.2,1.93,2.93,3.33c0.72,1.4,1.08,3.13,1.08,5.22c0,2.52-0.66,4.67-1.97,6.43c-1.31,1.77-3.23,2.89-5.75,3.35
			l9.08,15.08h-9.43l-7.47-14.27h-3.88v14.27h-7.87V402.12z M466.32,416.9h4.64c0.71,0,1.45-0.03,2.24-0.08
			c0.79-0.05,1.51-0.2,2.14-0.46c0.64-0.25,1.17-0.65,1.59-1.18c0.42-0.54,0.63-1.29,0.63-2.27c0-0.91-0.19-1.63-0.56-2.17
			c-0.37-0.54-0.84-0.95-1.41-1.24c-0.57-0.29-1.23-0.48-1.97-0.58c-0.74-0.1-1.46-0.15-2.17-0.15h-5.15V416.9z"/>
		<path class="st0" d="M501.22,402.12h24.26v7.26h-16.39v6.66h15.48v7.26h-15.48v7.26h17.3v7.26h-25.17V402.12z"/>
		<path class="st0" d="M559.93,410.85c-0.64-0.81-1.51-1.4-2.6-1.79c-1.09-0.39-2.13-0.58-3.1-0.58c-0.57,0-1.16,0.07-1.77,0.2
			c-0.6,0.13-1.18,0.34-1.72,0.63c-0.54,0.29-0.98,0.66-1.31,1.14c-0.34,0.47-0.51,1.04-0.51,1.72c0,1.08,0.4,1.9,1.21,2.47
			c0.81,0.57,1.82,1.06,3.05,1.46c1.23,0.4,2.55,0.81,3.96,1.21c1.41,0.4,2.73,0.98,3.96,1.72c1.23,0.74,2.24,1.73,3.05,2.98
			c0.81,1.24,1.21,2.91,1.21,4.99c0,1.98-0.37,3.72-1.11,5.2c-0.74,1.48-1.74,2.71-3,3.68c-1.26,0.98-2.72,1.7-4.39,2.17
			c-1.66,0.47-3.42,0.71-5.27,0.71c-2.32,0-4.47-0.35-6.46-1.06c-1.98-0.71-3.83-1.85-5.55-3.43l5.6-6.15
			c0.81,1.08,1.82,1.91,3.05,2.5c1.23,0.59,2.5,0.88,3.81,0.88c0.64,0,1.29-0.08,1.94-0.23c0.66-0.15,1.24-0.38,1.77-0.68
			c0.52-0.3,0.94-0.69,1.26-1.16c0.32-0.47,0.48-1.03,0.48-1.67c0-1.08-0.41-1.92-1.24-2.55c-0.82-0.62-1.86-1.15-3.1-1.59
			c-1.24-0.44-2.59-0.87-4.04-1.31c-1.45-0.44-2.79-1.02-4.04-1.77c-1.24-0.74-2.28-1.72-3.1-2.93c-0.82-1.21-1.24-2.81-1.24-4.79
			c0-1.92,0.38-3.6,1.13-5.04c0.76-1.45,1.77-2.66,3.03-3.63c1.26-0.97,2.72-1.71,4.36-2.19c1.65-0.49,3.35-0.73,5.09-0.73
			c2.02,0,3.97,0.29,5.85,0.86c1.88,0.57,3.58,1.53,5.09,2.88L559.93,410.85z"/>
		<path class="st0" d="M578.55,419.98c0-2.86,0.48-5.45,1.44-7.77c0.96-2.32,2.3-4.29,4.01-5.93c1.72-1.63,3.75-2.88,6.1-3.76
			c2.35-0.87,4.93-1.31,7.72-1.31c2.79,0,5.36,0.44,7.72,1.31s4.39,2.13,6.1,3.76c1.72,1.63,3.05,3.61,4.01,5.93
			c0.96,2.32,1.44,4.91,1.44,7.77s-0.48,5.45-1.44,7.77c-0.96,2.32-2.29,4.3-4.01,5.93c-1.72,1.63-3.75,2.88-6.1,3.76
			c-2.35,0.87-4.93,1.31-7.72,1.31c-2.79,0-5.37-0.44-7.72-1.31c-2.35-0.87-4.39-2.13-6.1-3.76c-1.72-1.63-3.05-3.61-4.01-5.93
			C579.03,425.43,578.55,422.84,578.55,419.98z M586.72,419.98c0,1.68,0.26,3.22,0.78,4.62c0.52,1.4,1.27,2.61,2.24,3.63
			c0.97,1.03,2.14,1.82,3.5,2.4c1.36,0.57,2.88,0.86,4.57,0.86c1.68,0,3.2-0.29,4.56-0.86c1.36-0.57,2.53-1.37,3.51-2.4
			c0.97-1.03,1.72-2.24,2.24-3.63c0.52-1.4,0.78-2.93,0.78-4.62c0-1.65-0.26-3.18-0.78-4.59c-0.52-1.41-1.27-2.63-2.24-3.66
			c-0.98-1.02-2.14-1.82-3.51-2.4c-1.36-0.57-2.88-0.86-4.56-0.86c-1.68,0-3.2,0.29-4.57,0.86c-1.36,0.57-2.53,1.37-3.5,2.4
			c-0.98,1.03-1.72,2.24-2.24,3.66C586.98,416.8,586.72,418.33,586.72,419.98z"/>
		<path class="st0" d="M632.21,402.12h13.82c1.82,0,3.54,0.18,5.17,0.53c1.63,0.35,3.06,0.94,4.29,1.77
			c1.23,0.82,2.2,1.93,2.93,3.33c0.72,1.4,1.08,3.13,1.08,5.22c0,2.52-0.66,4.67-1.97,6.43c-1.31,1.77-3.23,2.89-5.75,3.35
			l9.08,15.08h-9.43l-7.47-14.27h-3.88v14.27h-7.87V402.12z M640.08,416.9h4.64c0.71,0,1.45-0.03,2.24-0.08
			c0.79-0.05,1.51-0.2,2.14-0.46c0.64-0.25,1.17-0.65,1.59-1.18c0.42-0.54,0.63-1.29,0.63-2.27c0-0.91-0.19-1.63-0.56-2.17
			c-0.37-0.54-0.84-0.95-1.41-1.24c-0.57-0.29-1.23-0.48-1.97-0.58c-0.74-0.1-1.46-0.15-2.17-0.15h-5.15V416.9z"/>
		<path class="st0" d="M682,409.09h-10.19v-6.96h28.25v6.96h-10.19v28.75H682V409.09z"/>
		<path class="st0" d="M731.73,410.85c-0.64-0.81-1.51-1.4-2.6-1.79s-2.13-0.58-3.1-0.58c-0.57,0-1.16,0.07-1.77,0.2
			c-0.61,0.13-1.18,0.34-1.72,0.63c-0.54,0.29-0.98,0.66-1.31,1.14c-0.34,0.47-0.51,1.04-0.51,1.72c0,1.08,0.4,1.9,1.21,2.47
			c0.81,0.57,1.82,1.06,3.05,1.46c1.23,0.4,2.55,0.81,3.96,1.21c1.41,0.4,2.73,0.98,3.96,1.72c1.23,0.74,2.24,1.73,3.05,2.98
			c0.81,1.24,1.21,2.91,1.21,4.99c0,1.98-0.37,3.72-1.11,5.2c-0.74,1.48-1.74,2.71-3,3.68c-1.26,0.98-2.72,1.7-4.39,2.17
			c-1.66,0.47-3.42,0.71-5.27,0.71c-2.32,0-4.47-0.35-6.46-1.06c-1.98-0.71-3.83-1.85-5.55-3.43l5.6-6.15
			c0.81,1.08,1.82,1.91,3.05,2.5c1.23,0.59,2.5,0.88,3.81,0.88c0.64,0,1.29-0.08,1.94-0.23c0.66-0.15,1.24-0.38,1.77-0.68
			c0.52-0.3,0.94-0.69,1.26-1.16c0.32-0.47,0.48-1.03,0.48-1.67c0-1.08-0.41-1.92-1.24-2.55c-0.82-0.62-1.86-1.15-3.1-1.59
			c-1.24-0.44-2.59-0.87-4.04-1.31c-1.45-0.44-2.79-1.02-4.04-1.77c-1.24-0.74-2.28-1.72-3.1-2.93c-0.82-1.21-1.24-2.81-1.24-4.79
			c0-1.92,0.38-3.6,1.13-5.04c0.76-1.45,1.77-2.66,3.03-3.63c1.26-0.97,2.72-1.71,4.36-2.19c1.65-0.49,3.35-0.73,5.09-0.73
			c2.02,0,3.97,0.29,5.85,0.86c1.88,0.57,3.58,1.53,5.09,2.88L731.73,410.85z"/>
	</g>
	<g>
		<path class="st1" d="M294.61,206.97c0.26,12.84-3.96,25.12-9.68,36.98c-6.3,13.06-15.14,24.36-24.58,35.24
			c-0.79,0.91-1.61,1.79-2.42,2.69c-2.43,2.73-2.62,1.85,0.02,4.97c5.07,5.98,10.2,11.9,15.29,17.86
			c7.83,9.17,15.61,18.38,23.49,27.51c2.1,2.43,2.44,5.15,1.31,7.82c-1.2,2.83-3.84,3.97-6.9,3.91c-5.47-0.11-10.79-1.08-15.92-2.94
			c-3.45-1.26-6.32-3.48-8.99-5.95c-2.73-2.54-5.18-5.31-7.38-8.34c-5.8-8-12.25-15.42-20.04-21.57c-0.63-0.5-1.31-0.94-1.91-1.47
			c-0.82-0.71-1.53-0.68-2.41-0.05c-1.47,1.06-3.02,1.98-4.52,3c-15.1,10.2-31.09,18.82-47.51,26.67c-16.72,8-34.04,9.3-52.01,5.12
			c-8.63-2.01-15.52-6.56-20.91-13.33c-8.49-10.66-12.75-22.97-12.6-36.58c0.08-6.73,1.75-13.32,3.35-19.86
			c7.42-30.31,25.43-56.74,49.19-76.68c21.54-18.08,55.6-40.32,84.89-38.77c22.21,1.17,48.03,9.78,56.74,31.93
			C293.8,191.95,294.61,197.09,294.61,206.97 M144.54,313.66c11.45-0.07,22.41-2.33,32.39-8.04c11.96-6.85,23.21-14.78,33.88-23.53
			c1.74-1.42,1.74-1.47,0.04-3.14c-4.02-3.93-8.01-7.91-12.11-11.76c-4.52-4.23-6.13-9.58-5.96-15.51
			c0.18-6.09,6.44-11.98,12.32-11.8c3.04,0.09,5.95,0.79,8.61,2.38c3.84,2.28,7.2,5.11,10,8.59c3.1,3.86,6.63,7.26,10.71,10.09
			c1.28,0.89,2.14,0.92,3.38-0.12c5.21-4.37,9.46-9.53,13.04-15.29c3.33-5.37,6.2-11.04,10.19-16c0.37-0.46,0.64-1.03,0.86-1.58
			c2.66-6.94,5.49-13.82,7.88-20.84c2.36-6.91,1.25-13.48-3.08-19.44c-0.66-0.9-1.38-1.69-2.39-2.23
			c-17.89-9.69-36.23-11.73-54.81-2.37c-18.44,9.29-34.87,21.56-49.5,36.06c-10.97,10.86-19.9,23.38-27.44,36.89
			c-4.85,8.69-8.15,17.88-9.4,27.78c-0.81,6.44-0.22,12.84,0.67,19.21c0.38,2.74,1.5,5.21,4.14,6.66c4.6,2.52,9.21,4.97,14.77,4
			C143.32,313.57,143.94,313.66,144.54,313.66"/>
		<path class="st1" d="M682.53,328.6c-1.89-0.02-4.8-0.18-7.64-0.93c-5.91-1.57-10.42-4.99-13.64-10.2
			c-3.15-5.11-4.44-10.7-4.54-16.61c-0.19-10.87,1.75-21.38,5.56-31.56c3.27-8.75,6.57-17.48,10.61-25.91
			c0.95-1.97,0.76-2.23-1.41-2.09c-4.94,0.32-9.66,1.84-14.46,2.86c-4.52,0.96-9.02,1.99-13.53,2.99c-2.59,0.58-5.2,0.51-7.8,0.14
			c-2.97-0.42-5.06-2.47-5.71-5.42c-1.23-5.64,0.39-9.76,5.16-13.05c2.85-1.96,6.06-3.13,9.32-4.15c6.74-2.1,13.7-3.13,20.63-4.26
			c6.14-1,12.29-1.98,18.46-2.84c1.52-0.21,2.57-0.72,3.45-2c5.82-8.55,11.74-17.04,17.15-25.87c4.05-6.61,8.52-12.9,13.28-19.01
			c3.03-3.9,6.13-7.69,10.07-10.73c3.53-2.72,7.35-4.03,11.83-2.82c3.31,0.89,4.8,2.81,4.85,6.29c0.05,3.45-1.12,6.36-3.1,9.21
			c-8.31,11.96-17.47,23.31-25.26,35.64c-0.21,0.34-0.48,0.66-0.64,1.02c-0.47,1.07-1.56,2.28-0.92,3.3
			c0.74,1.17,2.2,0.26,3.33,0.13c5.49-0.63,10.95-1.43,16.48-1.74c2.43-0.14,4.81,0.37,7.22,0.35c0.2,0,0.41,0.02,0.59,0.09
			c1.97,0.77,3.84,6.3,2.72,8.12c-1.26,2.05-3.07,3.33-5.37,4.11c-6.67,2.29-13.61,3.47-20.44,5.12c-3.71,0.89-7.42,1.78-11.16,2.55
			c-2.65,0.55-4.67,2.01-5.88,4.3c-1.27,2.41-2.9,4.58-4.35,6.85c-6.47,10.16-11.05,21.17-14.74,32.56
			c-2.69,8.34-3.32,16.91-2.09,25.61c0.33,2.34,1.1,4.49,2.53,6.37c2.15,2.84,4.66,4.57,8.61,4.45c6.77-0.2,12.86-1.86,18.24-6.03
			c4.45-3.44,9.09-6.61,13.1-10.62c2.5-2.5,4.06-2.54,6.29-0.75c1.93,1.55,1.7,3.51,1.05,5.49c-1.24,3.81-3.35,7.14-6.51,9.6
			c-5.31,4.13-10.64,8.26-16.2,12.05C700.48,326.17,692.34,328.51,682.53,328.6"/>
		<path class="st1" d="M400.3,295.85c0.19-6.62-0.31-13.25,0.28-19.88c0.19-2.17-1.14-2.9-3.01-1.76c-1.02,0.62-1.95,1.41-2.89,2.17
			c-7.61,6.1-14.73,12.75-21.57,19.7c-9.16,9.32-18.89,18.03-28.92,26.4c-4.74,3.95-10.03,6.57-16.23,7.33
			c-10.9,1.34-22.31-4.67-27.29-14.44c-1.84-3.6-2.21-7.44-2.19-11.41c0.08-12.91,3.46-25,9.05-36.52
			c2.72-5.59,5.32-11.25,8.53-16.6c3.39-5.65,8.86-8.44,14.89-7.5c4.07,0.63,7.83,4.36,8.45,8.4c0.31,1.99-0.31,3.76-1.29,5.46
			c-3.47,6-6.94,11.99-10.37,18.01c-3.64,6.39-5.34,13.44-6.36,20.59c-0.8,5.64,3.74,8.9,8.72,9.55c3.05,0.4,5.87-0.26,8.43-2.33
			c4.71-3.81,9.12-7.88,12.84-12.66c2.48-3.17,5.18-6.14,7.99-9.02c12.78-13.09,25.76-25.95,40.38-37.04
			c4.79-3.64,9.75-3.76,15.03-1.73c5.53,2.13,7.89,6.48,8.27,12.16c0.24,3.66-0.65,7.19-1.27,10.74
			c-1.23,6.93-2.03,13.88-1.98,20.95c0.08,12.46,0.38,24.91,0.86,37.35c0.05,1.3,0.1,2.61,0.09,3.91c-0.01,1.61-0.57,3.07-2.01,3.82
			c-2.64,1.37-5.31,2.07-8.24,0.35c-6.19-3.65-9.03-9.29-9.58-16.14C400.4,309.12,400.04,302.49,400.3,295.85"/>
		<path class="st1" d="M505.25,251.76c-0.9-0.01-1.78-0.02-2.67,0.27c-6.7,2.17-13.29,4.57-18.96,8.9
			c-5.11,3.9-10.26,7.78-13.38,13.63c-0.42,0.79-0.88,1.59-1.14,2.44c-0.32,1.04,0.07,1.76,1.3,1.81c1.81,0.07,3.58-0.05,5.33-0.66
			c8.7-3.03,16.64-7.44,24.02-12.92c3.68-2.73,6.16-6.56,9.29-9.8c0.2-0.21,0.33-0.5,0.44-0.78c0.46-1.1,0.28-1.94-0.96-2.38
			C507.44,251.89,506.36,251.76,505.25,251.76 M457.11,331.29c-5.94,0.72-12.43-0.69-18.61-3.71c-2.38-1.16-4.58-2.57-6.15-4.74
			c-5.5-7.6-7.34-16.07-4.84-25.09c1.52-5.49,3.83-10.77,6.74-15.74c3.74-6.38,8.34-12.05,13.76-17.05
			c6.88-6.34,14.21-12.11,21.99-17.32c8.5-5.68,17.63-10.04,27.55-12.51c9.94-2.48,19.54-0.91,28.64,3.66
			c3.27,1.65,4.59,4.72,4.83,8.19c0.3,4.25-0.13,8.38-2.34,12.22c-1.92,3.33-4.05,6.45-6.86,9.1c-2.34,2.21-4.52,4.57-6.84,6.79
			c-14.32,13.73-31.13,22.5-50.88,25.3c-2.38,0.34-4.8,0.47-7.2,0.61c-3.17,0.19-4.98,1.27-5.76,4.19
			c-1.29,4.88-0.56,7.88,3.09,10.77c2.54,2.01,5.46,2.96,8.66,3.03c5.14,0.11,10.08-0.78,15.07-2.16
			c8.44-2.33,16.46-5.77,24.73-8.56c1.55-0.52,3.1-0.84,4.73-0.62c3.39,0.47,4.85,3.57,3.05,6.5c-0.64,1.05-1.55,1.84-2.58,2.49
			c-12.05,7.63-25.02,12.69-39.29,14.16C465.08,331.18,461.58,331.38,457.11,331.29"/>
		<path class="st1" d="M603.05,241.84c-9.01-0.5-18.17,2.06-27.34,4.19c-5.64,1.31-9.12,5.61-11.29,10.88
			c-1.53,3.73-0.32,6.89,2.26,9.65c2.35,2.52,5.15,4.48,8.17,6.12c4.32,2.34,8.69,4.61,13.04,6.91c0.89,0.47,1.77,0.96,2.69,1.35
			c9.9,4.16,8.99,16.54,4.03,21.86c-0.95,1.02-2.05,1.93-3.16,2.78c-1.92,1.46-4,2.71-5.85,4.25c-7.48,6.27-16.35,9.66-25.44,12.68
			c-9.7,3.22-19.63,4.99-29.86,5.23c-3.06,0.07-5.99-0.55-8.91-1.28c-0.29-0.07-0.58-0.17-0.85-0.3c-1.84-0.89-3.1-2.41-3.39-4.35
			c-0.29-1.96,1.37-2.96,2.77-3.96c1.46-1.05,3.16-1.22,4.86-1.4c8.02-0.83,15.85-2.52,23.51-5.04c6.6-2.17,12.48-5.49,17.46-10.36
			c0.36-0.35,0.72-0.7,1.07-1.07c3.32-3.55,3.29-5.82-0.09-9.32c-1.12-1.16-2.32-2.26-3.72-3.05c-4.71-2.67-9.22-5.68-14.15-7.99
			c-6.9-3.24-9.56-9.33-10.5-16.48c-0.77-5.84,1.39-10.85,4.23-15.68c3.23-5.5,7.84-9.63,13.16-13.01
			c7.82-4.98,16.48-7.7,25.45-9.76c8.25-1.89,16.57-3.26,24.96-4.05c6.49-0.62,12.56,1.01,17.21,6.18c1.66,1.85,2.28,3.72,1.92,6.25
			c-0.36,2.52-1.33,4.19-3.55,5.46c-4.25,2.42-8.85,3.14-13.61,3.31C606.64,241.88,605.13,241.84,603.05,241.84"/>
	</g>
</g>
</svg>
