<svg width="302" height="302" viewBox="0 0 302 302" fill="none" xmlns="http://www.w3.org/2000/svg">
<circle cx="151" cy="151" r="151" fill="#B8D8EB" fill-opacity="0.5"/>
<g clip-path="url(#clip0_77_579)">
<path d="M230.847 216.931H224.818V210.913H218.788V216.931H212.758V210.913H206.729V216.931H161.868C158.65 216.916 155.707 218.729 154.279 221.607C153.872 222.434 153.024 222.957 152.1 222.95H134.739C133.812 222.953 132.968 222.43 132.561 221.607C131.136 218.733 128.197 216.92 124.982 216.931H80.1295V162.776H74.0999V216.931H68.0703V162.776H62.0406V216.931H56.0148C54.3491 216.931 53 218.278 53 219.94V228.968C53 235.614 58.3965 241 65.0592 241H221.803C228.462 241 233.862 235.61 233.862 228.968V219.94C233.862 218.278 232.513 216.931 230.847 216.931ZM227.832 228.968C227.832 232.289 225.134 234.986 221.803 234.986H65.0592C61.7279 234.986 59.0296 232.293 59.0296 228.968V222.95H124.986C125.913 222.942 126.757 223.465 127.168 224.292C128.596 227.166 131.532 228.979 134.743 228.968H152.119C155.334 228.986 158.281 227.17 159.709 224.292C160.116 223.469 160.953 222.95 161.876 222.95H227.836V228.968H227.832Z" fill="#00A8E1"/>
<path d="M131.374 108.621V102.602H77.1147C68.7938 102.614 62.0557 109.339 62.0444 117.644V120.653H68.074V117.644C68.074 112.66 72.1252 108.617 77.1185 108.617H131.374V108.621Z" fill="#00A8E1"/>
<path d="M74.1001 120.657H137.4V114.639H80.1297C76.7983 114.639 74.1001 117.332 74.1001 120.657Z" fill="#00A8E1"/>
<path d="M131.265 141.017C130.255 140.776 129.192 141.073 128.457 141.803L99.0363 170.863L91.8837 175.109C87.1353 177.866 84.9911 183.58 86.7585 188.77C88.1415 192.979 91.8384 196.011 96.2438 196.549L102.522 209.228C103.031 210.259 104.082 210.91 105.235 210.906H117.091C118.109 210.906 119.058 210.394 119.616 209.548C120.174 208.698 120.264 207.626 119.861 206.693L113.62 192.314L146.388 192.855H146.44C147.416 192.855 148.328 192.385 148.894 191.591C149.459 190.798 149.606 189.782 149.289 188.864L133.428 142.954C133.089 141.976 132.271 141.242 131.261 141.005L131.265 141.017ZM92.4904 186.845C91.6425 184.343 92.6788 181.598 94.9663 180.27L99.6732 177.483L104.945 187.89L100.48 190.094C98.9835 190.835 97.2349 190.892 95.6936 190.249C94.1787 189.636 93.0067 188.391 92.4904 186.841V186.845ZM107.116 204.895L102.56 195.706C102.748 195.624 102.956 195.59 103.144 195.496L107.489 193.348L112.497 204.895H107.112H107.116ZM110.877 186.269L104.595 173.857L129.312 149.442L142.212 186.773L110.877 186.269Z" fill="#00A8E1"/>
<path d="M146.926 163.543L156.894 160.087L158.872 165.766L148.905 169.223L146.926 163.543Z" fill="#00A8E1"/>
<path d="M139.095 143.544L145.743 136.627L150.095 140.795L143.444 147.712L139.095 143.548V143.544Z" fill="#00A8E1"/>
<path d="M164.533 183.836H155.488V189.854H164.533V183.836Z" fill="#00A8E1"/>
<path d="M230.847 162.776H173.573C171.908 162.776 170.559 164.123 170.559 165.785V201.89C170.559 203.549 171.908 204.899 173.573 204.899H230.847C232.513 204.899 233.862 203.552 233.862 201.89V165.785C233.862 164.126 232.513 162.776 230.847 162.776ZM227.832 198.877H176.588V168.79H227.832V198.877Z" fill="#00A8E1"/>
<path d="M194.677 174.808H182.618V180.827H194.677V174.808Z" fill="#00A8E1"/>
<path d="M221.802 174.808H200.703V180.827H221.802V174.808Z" fill="#00A8E1"/>
<path d="M221.803 186.845H182.618V192.863H221.803V186.845Z" fill="#00A8E1"/>
<path d="M56.0148 156.758H101.229C102.895 156.758 104.244 155.411 104.244 153.749V129.68C104.244 128.018 102.895 126.671 101.229 126.671H56.0148C54.3491 126.671 53 128.018 53 129.68V153.749C53 155.411 54.3491 156.758 56.0148 156.758ZM59.0296 132.689H98.2145V150.74H59.0296V132.689Z" fill="#00A8E1"/>
<path d="M71.0887 138.707H65.0591V144.725H71.0887V138.707Z" fill="#00A8E1"/>
<path d="M92.1888 138.707H77.1147V144.725H92.1888V138.707Z" fill="#00A8E1"/>
<path d="M126.795 74.4114V96.7461C126.795 100.857 130.134 104.19 134.253 104.19H146.745L157.463 111.321C158.036 111.701 158.771 111.731 159.374 111.408C159.977 111.084 160.357 110.456 160.357 109.772V104.19H171.546C175.665 104.19 179.004 100.857 179.004 96.7461V74.4114C179.004 70.3003 175.665 66.9678 171.546 66.9678H134.253C130.134 66.9678 126.795 70.3003 126.795 74.4114ZM175.277 74.4114V96.7461C175.277 98.8035 173.607 100.47 171.546 100.47H158.492C157.463 100.47 156.626 101.305 156.626 102.332V106.3L148.339 100.782C148.034 100.579 147.672 100.47 147.303 100.47H134.249C132.188 100.47 130.518 98.8035 130.518 96.7461V74.4114C130.518 72.354 132.188 70.6877 134.249 70.6877H171.542C173.604 70.6877 175.273 72.354 175.273 74.4114H175.277Z" fill="#00A8E1"/>
<path d="M137.984 96.7461H156.63C157.659 96.7461 158.496 95.9111 158.496 94.8843V92.3115L166.986 96.5581C167.566 96.8477 168.256 96.8138 168.806 96.4753C169.356 96.133 169.688 95.5312 169.684 94.8843V76.2733C169.684 75.6263 169.349 75.0283 168.802 74.6898C168.252 74.3513 167.566 74.3212 166.986 74.607L158.496 78.846V76.2733C158.496 75.2465 157.659 74.4114 156.63 74.4114H137.984C136.955 74.4114 136.118 75.2465 136.118 76.2733V94.8843C136.118 95.9111 136.955 96.7461 137.984 96.7461ZM139.849 78.1351H154.768V81.8588C154.768 82.5058 155.104 83.1038 155.654 83.4424C156.204 83.7809 156.89 83.811 157.471 83.5251L165.961 79.2861V91.8752L157.471 87.6362C156.894 87.3466 156.204 87.3804 155.654 87.719C155.104 88.0575 154.768 88.6593 154.768 89.3025V93.0262H139.849V78.1351Z" fill="#00A8E1"/>
<path d="M213.052 118.028C206.559 112.781 197.763 111.37 189.951 114.323C182.139 117.275 176.483 124.147 175.1 132.37L166.688 135.642C166.063 135.886 165.641 136.481 165.622 137.154C165.603 137.823 165.984 138.444 166.594 138.726L175.736 142.958C177.07 147.531 179.776 151.582 183.492 154.573C193.603 162.72 208.417 161.144 216.583 151.052C224.746 140.96 223.167 126.175 213.056 118.024L213.052 118.028ZM185.602 151.966C182.237 149.258 179.84 145.534 178.774 141.352C178.683 140.998 178.484 140.686 178.201 140.46C178.096 140.374 177.979 140.298 177.851 140.242L171.572 137.338L177.225 135.134C177.802 134.908 178.209 134.389 178.284 133.776C179.445 124.693 186.609 117.539 195.71 116.373C204.81 115.207 213.55 120.326 216.971 128.826C220.393 137.323 217.631 147.054 210.252 152.5C202.873 157.943 192.74 157.725 185.606 151.966H185.602Z" fill="#00A8E1"/>
<path d="M207.871 130.741H205.18V127.386C205.18 123.681 202.169 120.676 198.457 120.676C196.599 120.676 195.095 122.176 195.095 124.031V128.367L192.717 130.741H186.692C185.764 130.741 185.011 131.493 185.011 132.418V145.839C185.011 146.764 185.764 147.516 186.692 147.516H207.871C210.098 147.516 211.903 145.715 211.903 143.492V134.769C211.903 132.546 210.098 130.745 207.871 130.745V130.741ZM188.372 134.096H191.734V144.161H188.372V134.096ZM208.541 143.492C208.541 143.86 208.24 144.161 207.871 144.161H195.095V133.114L197.963 130.252C198.28 129.936 198.457 129.511 198.457 129.067V124.034C200.315 124.034 201.818 125.535 201.818 127.39V130.745C200.891 130.745 200.138 131.497 200.138 132.422C200.138 133.347 200.891 134.1 201.818 134.1H207.871C208.24 134.1 208.541 134.401 208.541 134.769V143.492Z" fill="#00A8E1"/>
<path d="M216.448 113.98C230.979 113.98 243.75 104.363 247.745 90.4158C251.736 76.4689 245.981 61.5703 233.643 53.9048C221.305 46.243 205.368 47.6685 194.598 57.4066C183.824 67.1446 180.824 82.8255 187.242 95.8396L181.457 107.357C180.975 108.316 181.107 109.471 181.796 110.298C182.482 111.126 183.598 111.468 184.634 111.171L197.111 107.613C202.711 111.739 209.487 113.973 216.451 113.98H216.448ZM216.448 54.4163C231.427 54.4163 243.573 66.539 243.573 81.4902C243.573 96.4452 231.427 108.564 216.448 108.564C210.233 108.587 204.204 106.454 199.388 102.531C198.702 101.978 197.794 101.79 196.946 102.031L189.077 104.273L192.71 97.0207C193.106 96.2271 193.09 95.2867 192.661 94.5081C188.052 86.1204 188.222 75.9273 193.106 67.6975C197.989 59.464 206.861 54.4163 216.448 54.4163Z" fill="#00A8E1"/>
<path d="M233.651 87.1773C236.183 85.1349 237.785 82.1597 238.094 78.925C238.396 75.7316 237.393 72.5533 235.317 70.1047C233.014 67.3966 229.694 65.7529 226.14 65.5648C222.564 65.3692 219.059 66.6405 216.448 69.0854C213.848 66.6405 210.358 65.3655 206.793 65.5573C203.228 65.7491 199.897 67.3928 197.575 70.1047C195.499 72.5533 194.496 75.7316 194.798 78.925C195.107 82.1597 196.708 85.1349 199.241 87.1773L214.726 99.8379C215.724 100.658 217.164 100.658 218.166 99.8379L233.651 87.1773ZM231.156 73.5689C232.298 74.9117 232.856 76.6532 232.694 78.4097C232.517 80.2038 231.624 81.8513 230.21 82.9797L216.444 94.2335L202.678 83.0023C201.268 81.8739 200.371 80.2264 200.194 78.4323C200.036 76.6795 200.59 74.9342 201.732 73.5915C203.092 72.0305 205.025 71.0902 207.094 70.9811C209.163 70.8758 211.187 71.6092 212.698 73.0235L214.567 74.8026C215.615 75.8031 217.266 75.8031 218.317 74.8026L220.186 73.0235C221.596 71.6958 223.465 70.9623 225.402 70.9698H225.835C227.893 71.0714 229.818 72.0155 231.156 73.5764V73.5689Z" fill="#00A8E1"/>
</g>
<defs>
<clipPath id="clip0_77_579">
<rect width="196" height="192" fill="white" transform="translate(53 49)"/>
</clipPath>
</defs>
</svg>
