<svg width="302" height="302" viewBox="0 0 302 302" fill="none" xmlns="http://www.w3.org/2000/svg">
<circle cx="151" cy="151" r="151" fill="#B8D8EB" fill-opacity="0.5"/>
<path d="M206.734 89.4H89.1069C87.606 82.0129 80.7567 76.9676 73.262 77.7254C65.7625 78.4831 60.0571 84.7996 60.0669 92.3334V192.067C60.0767 200.163 66.6376 206.724 74.7336 206.733H206.734C208.352 206.733 209.667 205.418 209.667 203.8V92.3334C209.667 90.7151 208.352 89.4 206.734 89.4ZM65.9336 92.3334C65.9336 87.4738 69.874 83.5334 74.7336 83.5334C79.5931 83.5334 83.5336 87.4738 83.5336 92.3334V177.41C78.322 173.489 71.1451 173.489 65.9336 177.41V92.3334ZM203.8 200.867H74.7336C69.874 200.862 65.9385 196.926 65.9336 192.067V189.133C65.9336 184.274 69.874 180.333 74.7336 180.333C79.5931 180.333 83.5336 184.274 83.5336 189.133C83.5336 190.752 84.8487 192.067 86.4669 192.067C88.0851 192.067 89.4002 190.752 89.4002 189.133V95.2667H203.8V200.867Z" fill="#00A8E1"/>
<path d="M239 145.133H221.4C219.781 145.133 218.466 146.448 218.466 148.067V215.533H139.266C137.648 215.533 136.333 216.848 136.333 218.467V236.067C136.333 237.685 137.648 239 139.266 239H239C240.618 239 241.933 237.685 241.933 236.067V148.067C241.933 146.448 240.618 145.133 239 145.133ZM236.066 233.133H142.2V221.4H148.066V224.333C148.066 225.952 149.381 227.267 151 227.267C152.618 227.267 153.933 225.952 153.933 224.333V221.4H156.866V224.333C156.866 225.952 158.181 227.267 159.8 227.267C161.418 227.267 162.733 225.952 162.733 224.333V221.4H165.666V224.333C165.666 225.952 166.981 227.267 168.6 227.267C170.218 227.267 171.533 225.952 171.533 224.333V221.4H174.466V224.333C174.466 225.952 175.781 227.267 177.4 227.267C179.018 227.267 180.333 225.952 180.333 224.333V221.4H183.266V224.333C183.266 225.952 184.581 227.267 186.2 227.267C187.818 227.267 189.133 225.952 189.133 224.333V221.4H192.066V224.333C192.066 225.952 193.381 227.267 195 227.267C196.618 227.267 197.933 225.952 197.933 224.333V221.4H200.866V224.333C200.866 225.952 202.181 227.267 203.8 227.267C205.418 227.267 206.733 225.952 206.733 224.333V221.4H209.666V224.333C209.666 225.952 210.981 227.267 212.6 227.267C214.218 227.267 215.533 225.952 215.533 224.333V221.4H236.066V233.133ZM236.066 215.533H224.333V151H236.066V215.533Z" fill="#00A8E1"/>
<path d="M233.133 227.267C233.133 228.885 231.818 230.2 230.2 230.2C228.582 230.2 227.267 228.885 227.267 227.267C227.267 225.648 228.582 224.333 230.2 224.333C231.818 224.333 233.133 225.648 233.133 227.267Z" fill="#00A8E1"/>
<path d="M97.271 74.5818L114.871 80.4484C115.169 80.5462 115.482 80.6 115.8 80.6H202.333C206.381 80.6 209.662 77.3147 209.667 73.2667V70.3333C209.667 66.2853 206.381 63.0049 202.333 63H115.8C115.482 63 115.169 63.0538 114.871 63.1516L97.271 69.0182C96.0733 69.4191 95.2666 70.5387 95.2666 71.8C95.2666 73.0613 96.0733 74.1858 97.271 74.5818ZM197.933 68.8667H202.333C203.145 68.8667 203.8 69.5218 203.8 70.3333V73.2667C203.8 74.0782 203.145 74.7333 202.333 74.7333H197.933V68.8667ZM189.133 68.8667H192.067V74.7333H189.133V68.8667ZM124.6 68.8667H183.267V74.7333H124.6V68.8667ZM116.279 68.8667H118.733V74.7333H116.279L107.479 71.8L116.279 68.8667Z" fill="#00A8E1"/>
<path d="M98.1999 195H168.6C170.218 195 171.533 193.685 171.533 192.067V156.867C171.533 155.248 170.218 153.933 168.6 153.933H136.333V121.667C136.333 120.048 135.018 118.733 133.4 118.733H98.1999C96.5817 118.733 95.2666 120.048 95.2666 121.667V192.067C95.2666 193.685 96.5817 195 98.1999 195ZM101.133 159.8H109.933C111.551 159.8 112.867 158.485 112.867 156.867C112.867 155.248 111.551 153.933 109.933 153.933H101.133V124.6H130.467V153.933H121.667C120.048 153.933 118.733 155.248 118.733 156.867C118.733 158.485 120.048 159.8 121.667 159.8H130.467V168.6C130.467 170.218 131.782 171.533 133.4 171.533C135.018 171.533 136.333 170.218 136.333 168.6V159.8H165.667V189.133H136.333V180.333C136.333 178.715 135.018 177.4 133.4 177.4C131.782 177.4 130.467 178.715 130.467 180.333V189.133H101.133V159.8Z" fill="#00A8E1"/>
<path d="M145.134 107H195C196.618 107 197.934 105.685 197.934 104.067C197.934 102.448 196.618 101.133 195 101.133H145.134C143.515 101.133 142.2 102.448 142.2 104.067C142.2 105.685 143.515 107 145.134 107Z" fill="#00A8E1"/>
<path d="M145.134 115.8H195C196.618 115.8 197.934 114.485 197.934 112.867C197.934 111.248 196.618 109.933 195 109.933H145.134C143.515 109.933 142.2 111.248 142.2 112.867C142.2 114.485 143.515 115.8 145.134 115.8Z" fill="#00A8E1"/>
<path d="M145.134 124.6H171.534C173.152 124.6 174.467 123.285 174.467 121.667C174.467 120.048 173.152 118.733 171.534 118.733H145.134C143.515 118.733 142.2 120.048 142.2 121.667C142.2 123.285 143.515 124.6 145.134 124.6Z" fill="#00A8E1"/>
<path d="M145.134 136.333H195C196.618 136.333 197.934 135.018 197.934 133.4C197.934 131.782 196.618 130.467 195 130.467H145.134C143.515 130.467 142.2 131.782 142.2 133.4C142.2 135.018 143.515 136.333 145.134 136.333Z" fill="#00A8E1"/>
<path d="M145.134 145.133H171.534C173.152 145.133 174.467 143.818 174.467 142.2C174.467 140.582 173.152 139.267 171.534 139.267H145.134C143.515 139.267 142.2 140.582 142.2 142.2C142.2 143.818 143.515 145.133 145.134 145.133Z" fill="#00A8E1"/>
</svg>
