<?xml version="1.0" encoding="utf-8"?>
<!-- Generator: Adobe Illustrator 26.5.0, SVG Export Plug-In . SVG Version: 6.00 Build 0)  -->
<svg version="1.1" id="Layer_1" xmlns="http://www.w3.org/2000/svg" xmlns:xlink="http://www.w3.org/1999/xlink" x="0px" y="0px"
	 viewBox="0 0 360 360" style="enable-background:new 0 0 360 360;" xml:space="preserve">
<style type="text/css">
	.st0{fill:#323E48;}
	.st1{fill:#898C32;}
</style>
<g>
	<g>
		<path class="st0" d="M51.2,209.35v4.09c0,0.39-0.26,0.65-0.65,0.65h-8.52c-0.13,0-0.26,0.13-0.26,0.26v39.2
			c0,0.39-0.26,0.65-0.65,0.65h-4.94c-0.39,0-0.65-0.26-0.65-0.65v-39.2c0-0.13-0.13-0.26-0.26-0.26h-8.06
			c-0.39,0-0.65-0.26-0.65-0.65v-4.09c0-0.39,0.26-0.65,0.65-0.65h23.34C50.94,208.7,51.2,208.96,51.2,209.35z"/>
		<path class="st0" d="M60.11,253.55v-44.2c0-0.39,0.26-0.65,0.65-0.65h4.94c0.39,0,0.65,0.26,0.65,0.65v44.2
			c0,0.39-0.26,0.65-0.65,0.65h-4.94C60.37,254.2,60.11,253.94,60.11,253.55z"/>
		<path class="st0" d="M77.27,253.55v-44.2c0-0.39,0.26-0.65,0.65-0.65h4.94c0.33,0,0.59,0.13,0.72,0.52l6.63,15.79
			c0.07,0.2,0.33,0.2,0.39,0l6.76-15.79c0.13-0.39,0.39-0.52,0.72-0.52h4.94c0.39,0,0.65,0.26,0.65,0.65v44.2
			c0,0.39-0.26,0.65-0.65,0.65h-4.94c-0.39,0-0.65-0.26-0.65-0.65V224.1c0-0.26-0.19-0.26-0.32-0.07l-6.05,12.87
			c-0.13,0.33-0.32,0.46-0.52,0.46c-0.26,0-0.52-0.13-0.65-0.46l-6.05-12.94c-0.13-0.19-0.32-0.19-0.32,0.07v29.51
			c0,0.39-0.26,0.65-0.65,0.65h-4.94C77.53,254.2,77.27,253.94,77.27,253.55z"/>
		<path class="st0" d="M125.69,254.2h-10.86c-0.39,0-0.65-0.26-0.65-0.65v-44.2c0-0.39,0.26-0.65,0.65-0.65h9.95
			c7.74,0,12.61,4.1,12.61,12.09c0,4.68-1.69,7.93-5,9.69c-0.2,0.13-0.2,0.26-0.06,0.32c3.31,2.02,5.46,5.59,5.52,10.86
			C137.91,249.84,132.84,254.2,125.69,254.2z M120.43,214.35v13.78c0,0.13,0.13,0.26,0.26,0.26h4.16c4.1,0,6.44-2.6,6.44-7.02
			c0-4.62-2.34-7.28-6.44-7.28h-4.16C120.56,214.09,120.43,214.22,120.43,214.35z M131.61,241c0-5-2.4-8-6.37-8h-4.55
			c-0.13,0-0.26,0.13-0.26,0.26v15.21c0,0.13,0.13,0.26,0.26,0.26h4.49C129.14,248.74,131.61,245.95,131.61,241z"/>
		<path class="st0" d="M167.49,214.09h-14.63c-0.13,0-0.26,0.13-0.26,0.26v14.11c0,0.13,0.13,0.26,0.26,0.26h8.97
			c0.39,0,0.65,0.26,0.65,0.65v4.1c0,0.39-0.26,0.65-0.65,0.65h-8.97c-0.13,0-0.26,0.13-0.26,0.26v14.17c0,0.13,0.13,0.26,0.26,0.26
			h14.63c0.39,0,0.65,0.26,0.65,0.65v4.09c0,0.39-0.26,0.65-0.65,0.65h-20.48c-0.39,0-0.65-0.26-0.65-0.65v-44.2
			c0-0.39,0.26-0.65,0.65-0.65h20.48c0.39,0,0.65,0.26,0.65,0.65v4.09C168.14,213.83,167.88,214.09,167.49,214.09z"/>
		<path class="st0" d="M194.66,253.68l-6.04-19.5c-0.07-0.2-0.13-0.2-0.26-0.2h-4.48c-0.13,0-0.26,0.13-0.26,0.26v19.31
			c0,0.39-0.26,0.65-0.65,0.65h-4.94c-0.39,0-0.65-0.26-0.65-0.65v-44.27c0-0.39,0.26-0.65,0.65-0.65h11.64
			c6.7,0,11.18,5.26,11.18,12.94c0,5.52-2.47,9.75-6.37,11.44c-0.13,0.13-0.19,0.19-0.13,0.39l6.7,20.09
			c0.13,0.46-0.06,0.71-0.52,0.71h-5.07C195.11,254.2,194.79,254,194.66,253.68z M183.61,214.29v14.56c0,0.13,0.13,0.26,0.26,0.26
			h4.81c3.51,0,5.92-2.92,5.92-7.48c0-4.68-2.4-7.61-5.92-7.61h-4.81C183.74,214.03,183.61,214.16,183.61,214.29z"/>
		<path class="st0" d="M209.74,253.55v-44.2c0-0.39,0.26-0.65,0.65-0.65h4.94c0.39,0,0.65,0.26,0.65,0.65v39.2
			c0,0.13,0.13,0.26,0.26,0.26h14.56c0.39,0,0.65,0.26,0.65,0.65v4.09c0,0.39-0.26,0.65-0.65,0.65h-20.41
			C210,254.2,209.74,253.94,209.74,253.55z"/>
		<path class="st0" d="M259.59,253.62l-1.43-7.48c0-0.13-0.2-0.26-0.33-0.26h-10.47c-0.13,0-0.33,0.13-0.33,0.26l-1.5,7.48
			c-0.06,0.39-0.32,0.58-0.71,0.58h-4.94c-0.45,0-0.65-0.33-0.58-0.71l9.69-44.2c0.07-0.39,0.33-0.58,0.71-0.58h5.72
			c0.39,0,0.65,0.2,0.71,0.58l9.82,44.2c0.07,0.39-0.13,0.71-0.58,0.71h-5.07C259.92,254.2,259.66,254,259.59,253.62z
			 M248.35,240.94h8.58c0.13,0,0.2-0.13,0.2-0.26l-4.29-22.23c-0.06-0.26-0.19-0.26-0.26,0l-4.42,22.23
			C248.15,240.81,248.22,240.94,248.35,240.94z"/>
		<path class="st0" d="M274.93,253.55v-44.2c0-0.39,0.26-0.65,0.65-0.65h5c0.33,0,0.58,0.13,0.72,0.52l11.57,28.67
			c0.06,0.26,0.32,0.2,0.32-0.07v-28.47c0-0.39,0.26-0.65,0.65-0.65h4.88c0.39,0,0.65,0.26,0.65,0.65v44.2
			c0,0.39-0.26,0.65-0.65,0.65h-5.07c-0.32,0-0.58-0.13-0.71-0.52l-11.57-28.67c-0.06-0.26-0.33-0.26-0.33,0l0.07,28.54
			c0,0.39-0.26,0.65-0.65,0.65h-4.88C275.19,254.2,274.93,253.94,274.93,253.55z"/>
		<path class="st0" d="M310.35,253.55v-44.2c0-0.39,0.26-0.65,0.65-0.65h10.66c7.15,0,11.77,4.75,11.77,12.29v20.93
			c0,7.54-4.62,12.29-11.77,12.29H311C310.61,254.2,310.35,253.94,310.35,253.55z M316.85,248.8l4.75-0.06
			c3.32,0,5.46-2.73,5.53-7.15v-20.28c0-4.42-2.15-7.21-5.53-7.21h-4.75c-0.13,0-0.26,0.13-0.26,0.26v34.19
			C316.6,248.67,316.73,248.8,316.85,248.8z"/>
	</g>
	<g>
		<path class="st0" d="M81.89,273.13h1.93c0.15,0,0.25,0.1,0.25,0.25v14.19c0,0.15-0.1,0.25-0.25,0.25h-1.93
			c-0.15,0-0.25-0.1-0.25-0.25v-5.94c0-0.06-0.04-0.1-0.1-0.1h-2.67c-0.06,0-0.1,0.04-0.1,0.1v5.94c0,0.15-0.1,0.25-0.25,0.25h-1.93
			c-0.15,0-0.25-0.1-0.25-0.25v-14.19c0-0.15,0.1-0.25,0.25-0.25h1.93c0.15,0,0.25,0.1,0.25,0.25v5.92c0,0.06,0.04,0.11,0.1,0.11
			h2.67c0.06,0,0.1-0.04,0.1-0.11v-5.92C81.64,273.24,81.74,273.13,81.89,273.13z"/>
		<path class="st0" d="M90.63,287.58v-14.19c0-0.15,0.1-0.25,0.25-0.25h1.93c0.15,0,0.25,0.1,0.25,0.25v14.19
			c0,0.15-0.1,0.25-0.25,0.25h-1.93C90.73,287.83,90.63,287.73,90.63,287.58z"/>
		<path class="st0" d="M99.36,284.2v-7.43c0-2.31,1.57-3.8,3.95-3.8s3.99,1.49,3.99,3.82v0.82c0,0.15-0.1,0.25-0.25,0.25h-1.93
			c-0.15,0-0.25-0.1-0.25-0.25v-0.86c0-1.01-0.63-1.68-1.55-1.68s-1.53,0.67-1.53,1.68v7.47c0,1.01,0.61,1.68,1.53,1.68
			s1.55-0.67,1.55-1.68v-2.02c0-0.06-0.04-0.1-0.1-0.1h-1.28c-0.15,0-0.25-0.11-0.25-0.25v-1.53c0-0.15,0.1-0.25,0.25-0.25h3.57
			c0.15,0,0.25,0.11,0.25,0.25v3.88c0,2.31-1.62,3.8-3.99,3.8S99.36,286.51,99.36,284.2z"/>
		<path class="st0" d="M119.06,273.13h1.93c0.15,0,0.25,0.1,0.25,0.25v14.19c0,0.15-0.1,0.25-0.25,0.25h-1.93
			c-0.15,0-0.25-0.1-0.25-0.25v-5.94c0-0.06-0.04-0.1-0.1-0.1h-2.67c-0.06,0-0.1,0.04-0.1,0.1v5.94c0,0.15-0.1,0.25-0.25,0.25h-1.93
			c-0.15,0-0.25-0.1-0.25-0.25v-14.19c0-0.15,0.1-0.25,0.25-0.25h1.93c0.15,0,0.25,0.1,0.25,0.25v5.92c0,0.06,0.04,0.11,0.1,0.11
			h2.67c0.06,0,0.1-0.04,0.1-0.11v-5.92C118.81,273.24,118.91,273.13,119.06,273.13z"/>
		<path class="st0" d="M127.79,287.58v-14.19c0-0.15,0.1-0.25,0.25-0.25h1.93c0.15,0,0.25,0.1,0.25,0.25v12.24
			c0,0.06,0.04,0.1,0.1,0.1h4.54c0.15,0,0.25,0.1,0.25,0.25v1.6c0,0.15-0.1,0.25-0.25,0.25h-6.82
			C127.9,287.83,127.79,287.73,127.79,287.58z"/>
		<path class="st0" d="M147.32,287.6l-0.4-2.2c0-0.06-0.06-0.1-0.13-0.1h-3.04c-0.06,0-0.13,0.02-0.13,0.08l-0.42,2.22
			c-0.02,0.17-0.13,0.23-0.27,0.23H141c-0.17,0-0.25-0.08-0.21-0.27l3.09-14.19c0.02-0.15,0.13-0.23,0.27-0.23h2.25
			c0.15,0,0.25,0.08,0.27,0.23l3.11,14.19c0.04,0.19-0.06,0.27-0.23,0.27h-1.95C147.45,287.83,147.34,287.77,147.32,287.6z
			 M144.15,283.38h2.29c0.06,0,0.13-0.02,0.1-0.1l-1.15-6.34c-0.02-0.08-0.1-0.08-0.13,0l-1.22,6.34
			C144.03,283.36,144.09,283.38,144.15,283.38z"/>
		<path class="st0" d="M155.81,287.58v-14.19c0-0.15,0.1-0.25,0.25-0.25h2.02c0.15,0,0.25,0.06,0.29,0.19l3.25,8.55
			c0.04,0.08,0.13,0.08,0.13-0.02v-8.46c0-0.15,0.1-0.25,0.25-0.25h1.91c0.15,0,0.25,0.1,0.25,0.25v14.19c0,0.15-0.1,0.25-0.25,0.25
			h-2.04c-0.15,0-0.25-0.06-0.29-0.19l-3.28-8.57c-0.04-0.08-0.13-0.06-0.13,0.02l0.02,8.48c0,0.15-0.1,0.25-0.25,0.25h-1.89
			C155.91,287.83,155.81,287.73,155.81,287.58z"/>
		<path class="st0" d="M170.72,287.58v-14.19c0-0.15,0.1-0.25,0.25-0.25h3.59c2.41,0,3.97,1.58,3.97,4.01v6.68
			c0,2.44-1.55,4.01-3.97,4.01h-3.59C170.82,287.83,170.72,287.73,170.72,287.58z M173.26,285.73l1.26-0.02
			c0.92,0,1.55-0.8,1.57-2.04v-6.38c0-1.26-0.61-2.06-1.6-2.06h-1.24c-0.06,0-0.1,0.04-0.1,0.1v10.29
			C173.15,285.69,173.2,285.73,173.26,285.73z"/>
		<path class="st0" d="M184.62,284.2v-0.59c0-0.15,0.1-0.25,0.25-0.25h1.89c0.15,0,0.25,0.1,0.25,0.25v0.46
			c0,1.11,0.63,1.83,1.47,1.83c0.86,0,1.49-0.67,1.49-1.72c0-1.11-0.74-1.64-2.21-2.73c-1.6-1.16-3.19-2.33-3.19-4.68
			c0-2.33,1.55-3.8,3.8-3.8c2.35,0,3.9,1.58,3.9,3.95v0.5c0,0.15-0.1,0.25-0.25,0.25h-1.91c-0.15,0-0.25-0.1-0.25-0.25v-0.55
			c0-1.09-0.61-1.81-1.49-1.81c-0.8,0-1.41,0.61-1.41,1.7c0,1.05,0.57,1.58,2.12,2.73c2.14,1.6,3.3,2.5,3.3,4.56
			c0,2.42-1.62,3.95-3.91,3.95C186.17,288,184.62,286.44,184.62,284.2z"/>
		<path class="st0" d="M212.46,287.62l-1.81-6.05c-0.02-0.04-0.04-0.08-0.1-0.08h-1.09c-0.06,0-0.11,0.04-0.11,0.11v5.98
			c0,0.15-0.11,0.25-0.25,0.25h-1.93c-0.15,0-0.25-0.1-0.25-0.25v-14.21c0-0.15,0.11-0.25,0.25-0.25h3.95
			c2.25,0,3.76,1.74,3.76,4.28c0,1.74-0.71,3.06-1.91,3.7c-0.06,0.02-0.08,0.06-0.06,0.12l2.06,6.32c0.06,0.19-0.04,0.29-0.21,0.29
			h-2.02C212.59,287.83,212.51,287.75,212.46,287.62z M209.36,275.32v4.18c0,0.06,0.04,0.1,0.11,0.1h1.28c1.01,0,1.7-0.82,1.7-2.16
			c0-1.38-0.69-2.22-1.7-2.22h-1.28C209.4,275.21,209.36,275.25,209.36,275.32z"/>
		<path class="st0" d="M227.96,275.23h-4.54c-0.06,0-0.11,0.04-0.11,0.1v3.97c0,0.06,0.04,0.11,0.11,0.11h2.69
			c0.15,0,0.25,0.1,0.25,0.25v1.62c0,0.15-0.11,0.25-0.25,0.25h-2.69c-0.06,0-0.11,0.04-0.11,0.1v3.99c0,0.06,0.04,0.1,0.11,0.1
			h4.54c0.15,0,0.25,0.1,0.25,0.25v1.6c0,0.15-0.11,0.25-0.25,0.25h-6.82c-0.15,0-0.25-0.1-0.25-0.25v-14.19
			c0-0.15,0.11-0.25,0.25-0.25h6.82c0.15,0,0.25,0.1,0.25,0.25v1.6C228.21,275.13,228.11,275.23,227.96,275.23z"/>
		<path class="st0" d="M234.01,284.2v-0.59c0-0.15,0.11-0.25,0.25-0.25h1.89c0.15,0,0.25,0.1,0.25,0.25v0.46
			c0,1.11,0.63,1.83,1.47,1.83c0.86,0,1.49-0.67,1.49-1.72c0-1.11-0.73-1.64-2.2-2.73c-1.6-1.16-3.19-2.33-3.19-4.68
			c0-2.33,1.55-3.8,3.8-3.8c2.35,0,3.91,1.58,3.91,3.95v0.5c0,0.15-0.11,0.25-0.25,0.25h-1.91c-0.15,0-0.25-0.1-0.25-0.25v-0.55
			c0-1.09-0.61-1.81-1.49-1.81c-0.8,0-1.41,0.61-1.41,1.7c0,1.05,0.57,1.58,2.12,2.73c2.14,1.6,3.3,2.5,3.3,4.56
			c0,2.42-1.62,3.95-3.91,3.95C235.56,288,234.01,286.44,234.01,284.2z"/>
		<path class="st0" d="M247.58,284.01v-7.05c0-2.41,1.6-3.99,4.01-3.99c2.42,0,4.03,1.58,4.03,3.99v7.05c0,2.41-1.62,3.99-4.03,3.99
			C249.17,288,247.58,286.42,247.58,284.01z M253.18,284.11v-7.27c0-1.05-0.63-1.78-1.6-1.78c-0.96,0-1.57,0.74-1.57,1.78v7.27
			c0,1.05,0.61,1.78,1.57,1.78C252.55,285.9,253.18,285.16,253.18,284.11z"/>
		<path class="st0" d="M267.46,287.62l-1.81-6.05c-0.02-0.04-0.04-0.08-0.11-0.08h-1.09c-0.06,0-0.1,0.04-0.1,0.11v5.98
			c0,0.15-0.1,0.25-0.25,0.25h-1.93c-0.15,0-0.25-0.1-0.25-0.25v-14.21c0-0.15,0.1-0.25,0.25-0.25h3.95c2.25,0,3.76,1.74,3.76,4.28
			c0,1.74-0.71,3.06-1.91,3.7c-0.06,0.02-0.08,0.06-0.06,0.12l2.06,6.32c0.06,0.19-0.04,0.29-0.21,0.29h-2.02
			C267.59,287.83,267.51,287.75,267.46,287.62z M264.36,275.32v4.18c0,0.06,0.04,0.1,0.1,0.1h1.28c1.01,0,1.7-0.82,1.7-2.16
			c0-1.38-0.69-2.22-1.7-2.22h-1.28C264.4,275.21,264.36,275.25,264.36,275.32z"/>
		<path class="st0" d="M283.68,273.38v1.6c0,0.15-0.11,0.25-0.25,0.25h-2.67c-0.06,0-0.1,0.04-0.1,0.1v12.24
			c0,0.15-0.11,0.25-0.25,0.25h-1.93c-0.15,0-0.25-0.1-0.25-0.25v-12.24c0-0.06-0.04-0.1-0.11-0.1h-2.52c-0.15,0-0.25-0.1-0.25-0.25
			v-1.6c0-0.15,0.11-0.25,0.25-0.25h7.83C283.57,273.13,283.68,273.24,283.68,273.38z"/>
	</g>
	<g>
		<g>
			<path class="st1" d="M180,78.49c13.88,0,26.92,5.4,36.73,15.22c9.81,9.81,15.22,22.86,15.22,36.73
				c0,13.87-5.41,26.92-15.22,36.73c-9.81,9.81-22.86,15.22-36.73,15.22c-13.87,0-26.92-5.4-36.73-15.22
				c-9.81-9.81-15.22-22.86-15.22-36.73c0-13.88,5.4-26.92,15.22-36.73C153.08,83.89,166.12,78.49,180,78.49 M180,72
				c-32.27,0-58.44,26.16-58.44,58.44c0,32.27,26.17,58.44,58.44,58.44s58.44-26.17,58.44-58.44C238.44,98.16,212.27,72,180,72"/>
			<path class="st1" d="M130.1,113.42l-0.2-6.49c0.29-0.01,29.47-0.96,43.05-5.34c11.08-3.58,21.68-11,35.43-21.11l3.84,5.23
				c-14.25,10.47-25.27,18.17-37.28,22.05C160.49,112.43,131.33,113.38,130.1,113.42"/>
			<path class="st1" d="M181.32,187.27c-13.21-17.26-4.46-30.35,2.57-40.86c4.47-6.69,8.34-12.47,6.83-18.37
				c-1.56-6.11-8.78-12.47-22.08-19.42l3.01-5.75c15.23,7.97,23.29,15.45,25.36,23.57c2.22,8.71-2.84,16.27-7.73,23.58
				c-6.79,10.16-13.2,19.75-2.81,33.32L181.32,187.27z"/>
			<path class="st1" d="M165.36,183.38c-0.24-0.38-5.91-9.33-3.88-18.14c1.26-5.49,4.59-9.91,8.11-14.59
				c4.06-5.4,8.26-10.97,9.39-18.59c0.6-4.03-0.03-7-1.92-9.06c-3.85-4.19-12.28-4.02-20.58-3.48c-14.05,0.91-29.86,6.43-30.02,6.49
				l-0.54-1.53c0.16-0.06,16.18-5.65,30.45-6.57c8.69-0.56,17.54-0.72,21.88,4c2.22,2.41,3,5.91,2.34,10.4
				c-1.2,8.03-5.52,13.77-9.7,19.33c-3.41,4.53-6.64,8.82-7.83,13.98c-1.87,8.14,3.61,16.81,3.67,16.9L165.36,183.38z"/>
			<path class="st1" d="M152.52,179.15c-7.71-7.74,1.48-21.84,8.87-33.17c2.63-4.04,4.91-7.53,5.97-10.07c1.49-3.6,1.65-6,0.46-7.34
				c-1.35-1.53-5.4-2.69-17.02,0.49c-19.28,5.28-22.77,14.46-22.8,14.55l-1.53-0.54c0.14-0.41,3.7-10.04,23.91-15.58
				c10.12-2.77,16.22-2.77,18.66,0c1.63,1.85,1.57,4.81-0.18,9.03c-1.11,2.68-3.43,6.23-6.11,10.33
				c-6.69,10.26-15.86,24.32-9.07,31.14L152.52,179.15z"/>
			<path class="st1" d="M139.06,165.14c-2.01-2.88,2.51-8.56,10.17-17.58c2.53-2.97,4.92-5.78,6.57-8.11
				c2.34-3.29,2.08-4.1,2.01-4.23c-0.1-0.17-0.76-0.39-2.55-0.04c-13.76,2.76-22.71,17.56-22.8,17.71l-1.39-0.83
				c0.38-0.64,9.41-15.57,23.87-18.47c1.46-0.29,3.48-0.53,4.26,0.8c1.3,2.21-2.28,6.61-8.74,14.21c-2.87,3.37-5.83,6.86-7.84,9.8
				c-2.7,3.95-2.56,5.33-2.23,5.79L139.06,165.14z"/>
			<path class="st1" d="M196.93,182.55c-11.74-18.23-4.38-27.2,1.54-34.41c1.52-1.85,2.96-3.59,3.97-5.36
				c5.25-9.16,4.91-17.37-0.93-22.53c-4.72-4.17-9.7-8.97-9.03-13.04c0.31-1.92,1.83-3.47,4.51-4.59c9.71-4.1,27.09-1.63,27.82-1.53
				l-0.23,1.6c-0.17-0.02-17.66-2.5-26.95,1.42c-2.13,0.9-3.32,2.03-3.54,3.36c-0.58,3.52,5.33,8.75,8.5,11.56
				c6.46,5.72,6.92,14.67,1.26,24.55c-1.08,1.89-2.55,3.69-4.12,5.59c-5.87,7.15-12.53,15.26-1.43,32.5L196.93,182.55z"/>
			<path class="st1" d="M210,175.07c-4.88-1.94-7.65-4.26-8.49-7.08c-1.25-4.23,2.02-8.86,5.49-13.77
				c3.08-4.35,6.26-8.86,7.01-13.67c1.13-7.29-1.04-12.48-2.96-17.06c-1.84-4.39-3.43-8.17-1.49-12.48
				c0.65-1.44,1.73-2.33,3.22-2.66c6.74-1.47,20.17,10.17,20.73,10.66l-1.07,1.22c-3.7-3.23-14.39-11.38-19.32-10.3
				c-0.97,0.21-1.65,0.78-2.08,1.74c-1.65,3.66-0.26,6.98,1.51,11.18c1.9,4.54,4.27,10.19,3.07,17.94
				c-0.81,5.19-4.25,10.06-7.29,14.35c-3.24,4.58-6.29,8.9-5.26,12.38c0.69,2.32,3.15,4.29,7.54,6.04L210,175.07z"/>
			<path class="st1" d="M220.84,165.6c-2.66,0-5.38-0.55-6.45-2.57c-1.21-2.26,0.03-5.6,3.8-10.2c4.34-5.31,4.55-11.65,4.55-22.39
				c0-4.38,0.79-6.63,2.49-7.1c3.19-0.88,7.6,6.16,8.45,7.58l-1.39,0.83c-2.15-3.58-5.29-7.22-6.62-6.85
				c-0.31,0.08-1.3,0.73-1.3,5.54c0,10.1,0,17.4-4.91,23.42c-4.06,4.97-4.21,7.32-3.63,8.41c1.05,1.96,5.31,1.77,7.1,1.6l0.16,1.61
				C222.36,165.55,221.6,165.6,220.84,165.6"/>
			<path class="st1" d="M151.46,98.13c-4.48,0-9.32-0.58-14.48-1.98l0.43-1.57c17.47,4.73,31.07-0.16,39.41-5.09
				c9.04-5.35,13.98-11.88,14.03-11.95l1.3,0.97c-0.21,0.28-5.19,6.86-14.51,12.37C171.5,94.52,162.6,98.13,151.46,98.13"/>
		</g>
	</g>
</g>
</svg>
